<svg xmlns="http://www.w3.org/2000/svg" width="25.114" height="25.114" viewBox="0 0 25.114 25.114"><path d="M22.423,2.25H2.691A2.691,2.691,0,0,0,0,4.941V24.673a2.691,2.691,0,0,0,2.691,2.691H22.423a2.691,2.691,0,0,0,2.691-2.691V4.941A2.691,2.691,0,0,0,22.423,2.25Zm-2.741,8.9c.011.157.011.32.011.476a10.389,10.389,0,0,1-10.46,10.46A10.412,10.412,0,0,1,3.588,20.44a7.745,7.745,0,0,0,.886.045,7.371,7.371,0,0,0,4.563-1.57A3.681,3.681,0,0,1,5.6,16.365,3.962,3.962,0,0,0,7.259,16.3a3.677,3.677,0,0,1-2.943-3.61v-.045a3.674,3.674,0,0,0,1.659.465,3.669,3.669,0,0,1-1.637-3.061,3.631,3.631,0,0,1,.5-1.855,10.439,10.439,0,0,0,7.579,3.846A3.684,3.684,0,0,1,18.689,8.68a7.2,7.2,0,0,0,2.332-.886,3.667,3.667,0,0,1-1.614,2.024,7.316,7.316,0,0,0,2.119-.572A7.739,7.739,0,0,1,19.682,11.152Z" transform="translate(0 -2.25)" fill="#f2f2f2"/></svg>