<svg xmlns="http://www.w3.org/2000/svg" width="30.615" height="21.526" viewBox="0 0 30.615 21.526"><path d="M31.025,7.868a3.847,3.847,0,0,0-2.707-2.724C25.931,4.5,16.357,4.5,16.357,4.5S6.784,4.5,4.4,5.144A3.847,3.847,0,0,0,1.69,7.868a40.354,40.354,0,0,0-.64,7.417A40.354,40.354,0,0,0,1.69,22.7,3.789,3.789,0,0,0,4.4,25.382c2.388.644,11.961.644,11.961.644s9.573,0,11.961-.644A3.789,3.789,0,0,0,31.025,22.7a40.354,40.354,0,0,0,.64-7.417,40.354,40.354,0,0,0-.64-7.417Zm-17.8,11.969v-9.1l8,4.552-8,4.552Z" transform="translate(-1.05 -4.5)" fill="#f2f2f2"/></svg>