<svg xmlns="http://www.w3.org/2000/svg" width="820.4" height="504.615" viewBox="0 0 820.4 504.615"><g transform="translate(0.02 0)"><path d="M831.47,411.862a168.115,168.115,0,0,1-4.924,40.566q-1.658,6.707-3.852,13.136a155.131,155.131,0,0,1-6.213,15.547q-1.776,3.845-3.754,7.536a101.386,101.386,0,0,1-8.477,40.74,105.029,105.029,0,0,1-50.972,52.518,107.217,107.217,0,0,1-45.5,10.448H166.821a136.3,136.3,0,0,1-68.552-18.326l-.32-.181q-4.451-2.605-8.679-5.516a136.11,136.11,0,0,1-17.81-14.683,132.535,132.535,0,0,1-19.579-24.26A129.457,129.457,0,0,1,31.966,460.27a162.994,162.994,0,0,1-20.9-80.714c0-37.613,12.231-71.924,32.326-97.9a137.632,137.632,0,0,1,13.729-15.275,127.758,127.758,0,0,1,15.7-12.851,122.157,122.157,0,0,1,13.931-8.358c2.013-1.024,4.033-1.992,6.088-2.891,1.8-.8,3.629-1.546,5.475-2.25q3.322-1.261,6.728-2.319t6.721-1.853q4.876-1.191,9.919-1.936c2.786-.411,5.572-.7,8.358-.912,2.215-.167,4.451-.258,6.7-.286h1.219c2.48,0,4.945.1,7.39.265.258-.515.536-1.038.794-1.546.975-1.86,1.985-3.712,3-5.523a.174.174,0,0,1,0-.049c.174-.32.348-.634.529-.94.822-1.484,1.679-2.953,2.556-4.409.4-.7.8-1.351,1.212-2.006a5.33,5.33,0,0,1,.286-.474q.627-1.045,1.275-2.09,3.225-5.154,6.708-10.128l.592-.85c.362-.515.7-1.017,1.1-1.532.961-1.344,1.95-2.7,2.946-4.019.7-.947,1.393-1.888,2.145-2.786q2.716-3.483,5.572-6.965t5.934-6.875c.279-.313.557-.62.85-.926l2.974-3.246h0c.146-.153.272-.293.411-.432h0c.355-.383.7-.766,1.08-1.135,1.6-1.693,3.232-3.35,4.876-5a265.513,265.513,0,0,1,26.677-23.243c.369-.293.745-.571,1.114-.85,1.769-1.33,3.566-2.647,5.363-3.942a282.306,282.306,0,0,1,30.933-19.294c.738-.425,1.491-.822,2.25-1.212a295.335,295.335,0,0,1,29.6-13.624c5.509-2.18,11.144-4.228,16.814-6.1,3.775-1.24,7.564-2.417,11.4-3.524q9-2.591,18.124-4.646a322.738,322.738,0,0,1,54.5-7.425q8.358-.425,16.9-.439a323.89,323.89,0,0,1,81.494,10.309,2.939,2.939,0,0,0,2.528,1.316h2.34c1.017.279,2.027.557,3.044.85q8.519,2.452,16.793,5.356l1.393.5A299.813,299.813,0,0,1,551.1,123.506a286.054,286.054,0,0,1,33.19,20.506q2.445,1.755,4.82,3.538,2.884-1.846,5.865-3.538a115.359,115.359,0,0,1,24.295-10.357,110.818,110.818,0,0,1,54.5-2.131c23.16,4.911,44.125,17.1,61.058,34.436a142.479,142.479,0,0,1,18.312,23.25c.383.6.766,1.205,1.135,1.818a153.229,153.229,0,0,1,11.66,23.243c.119.3.237.578.341.871a160.953,160.953,0,0,1,7.174,23.229c.084.4.181.8.265,1.205a167.247,167.247,0,0,1,3.427,23.243,4.5,4.5,0,0,0,.056.857q.439,6.067.446,12.259c0,3.692-.125,7.355-.355,10.991,0,.4-.056.808-.091,1.219-.063,1.052-.153,2.09-.244,3.148a132.18,132.18,0,0,1,14.892,14.049q3.044,3.322,5.893,6.9a146.7,146.7,0,0,1,15.184,23.243A163.115,163.115,0,0,1,831.47,411.862Z" transform="translate(-11.09 -87.76)" fill="#5da9e9" opacity="0.1"/><path d="M790.614,782.235c0,4.757-16.389,9.215-44.989,13.046H204.673a136.3,136.3,0,0,1-68.552-18.326l-.32-.181c8.219-3,23.055-5.788,43.247-8.31h0l.905-.111c9.055-1.107,19.175-2.159,30.236-3.155a6.9,6.9,0,0,0,.843-.077h0q13.164-1.17,28.007-2.194c.313,0,.62-.056.933-.07q5.725-.411,11.688-.78h0l1.532-.1c28.941-1.8,61.838-3.232,97.514-4.179h.042q7.495-.209,15.15-.369,8.512-.2,17.232-.355c4.437-.1,8.93-.167,13.436-.237h.1c20.332-.307,41.339-.46,62.82-.46,53.117,0,103.323.968,147.81,2.71h.125c6.84.265,13.555.557,20.1.857l5.572.265q11.082.529,21.592,1.135h0C737.093,766.034,790.614,773.647,790.614,782.235Z" transform="translate(-48.942 -290.667)" fill="#26a682" opacity="0.1"/><g transform="translate(432.782 275.12)" opacity="0.2"><path d="M684.885,747.443a13.231,13.231,0,0,1-.258,2.236q-7.272-1.156-14.627-2.09v-.6a11.757,11.757,0,0,1,1.741-5.907,6.48,6.48,0,0,1,11.792.362,11.75,11.75,0,0,1,1.351,6Z" transform="translate(-643.839 -560.047)" fill="#3f3d56"/><ellipse cx="9.758" cy="7.453" rx="9.758" ry="7.453" transform="translate(26.241 184.779) rotate(-88.19)" fill="#3f3d56"/><ellipse cx="9.758" cy="7.453" rx="9.758" ry="7.453" transform="translate(26.622 172.854) rotate(-88.19)" fill="#3f3d56"/><ellipse cx="9.758" cy="7.453" rx="9.758" ry="7.453" transform="translate(26.995 160.929) rotate(-88.19)" fill="#3f3d56"/><ellipse cx="9.758" cy="7.453" rx="9.758" ry="7.453" transform="translate(27.368 149.004) rotate(-88.19)" fill="#3f3d56"/><path d="M642.212,539.725a34.579,34.579,0,0,1-2.647-4.179l19.684-2.6-21.188-.508a35.787,35.787,0,0,1,.216-28.307l27.945,15.637-25.6-20.088a35.718,35.718,0,1,1,57.7,41.792,35.385,35.385,0,0,1,3.866,6.638l-25.834,12.4,27.394-8.24a35.759,35.759,0,0,1-6.84,33.371,35.718,35.718,0,1,1-56.112-1.769,35.718,35.718,0,0,1,1.393-44.146Z" transform="translate(-632.44 -482.747)" fill="#26a682"/><path d="M705.269,598.878a35.522,35.522,0,0,1-8.358,21.829,35.718,35.718,0,1,1-56.112-1.769C636.222,612.718,705.395,594.872,705.269,598.878Z" transform="translate(-632.44 -517.813)" opacity="0.1"/></g><g transform="translate(326.91 275.12)" opacity="0.2"><path d="M532.885,747.443a13.231,13.231,0,0,1-.258,2.236q-7.272-1.156-14.627-2.09v-.6a11.758,11.758,0,0,1,1.741-5.907,6.48,6.48,0,0,1,11.792.362,11.75,11.75,0,0,1,1.351,6Z" transform="translate(-491.839 -560.047)" fill="#3f3d56"/><ellipse cx="9.758" cy="7.453" rx="9.758" ry="7.453" transform="translate(26.233 184.782) rotate(-88.19)" fill="#3f3d56"/><ellipse cx="9.758" cy="7.453" rx="9.758" ry="7.453" transform="translate(26.613 172.857) rotate(-88.19)" fill="#3f3d56"/><ellipse cx="9.758" cy="7.453" rx="9.758" ry="7.453" transform="translate(26.986 160.932) rotate(-88.19)" fill="#3f3d56"/><ellipse cx="9.758" cy="7.453" rx="9.758" ry="7.453" transform="translate(27.36 149.007) rotate(-88.19)" fill="#3f3d56"/><path d="M490.212,539.725a34.583,34.583,0,0,1-2.647-4.179l19.684-2.6-21.188-.508a35.788,35.788,0,0,1,.216-28.307l27.945,15.637-25.6-20.088a35.718,35.718,0,1,1,57.7,41.792,35.378,35.378,0,0,1,3.866,6.638l-25.834,12.4,27.394-8.24a35.76,35.76,0,0,1-6.84,33.371,35.718,35.718,0,1,1-56.112-1.769,35.718,35.718,0,0,1,1.393-44.146Z" transform="translate(-480.44 -482.747)" fill="#26a682"/><path d="M553.269,598.878a35.522,35.522,0,0,1-8.358,21.829,35.718,35.718,0,1,1-56.112-1.769C484.222,612.718,553.395,594.872,553.269,598.878Z" transform="translate(-480.44 -517.813)" opacity="0.1"/></g><g transform="translate(578.18 109.498)" opacity="0.2"><path d="M942.061,754.34a25.984,25.984,0,0,1-.508,4.235q-14-2.236-28.2-4v-1.149a22.637,22.637,0,0,1,3.357-11.374c2.786-4.367,6.965-7.1,11.583-6.965s8.637,3.141,11.144,7.662a22.658,22.658,0,0,1,2.626,11.59Z" transform="translate(-863.086 -393.702)" fill="#3f3d56"/><ellipse cx="18.792" cy="14.355" rx="18.792" ry="14.355" transform="translate(50.446 355.585) rotate(-88.19)" fill="#3f3d56"/><ellipse cx="18.792" cy="14.355" rx="18.792" ry="14.355" transform="translate(51.169 332.627) rotate(-88.19)" fill="#3f3d56"/><ellipse cx="18.792" cy="14.355" rx="18.792" ry="14.355" transform="translate(51.9 309.669) rotate(-88.19)" fill="#3f3d56"/><ellipse cx="18.792" cy="14.355" rx="18.792" ry="14.355" transform="translate(51.821 285.719) rotate(-88.282)" fill="#3f3d56"/><path d="M859.946,354.533a69.145,69.145,0,0,1-5.092-8.031l37.891-5-40.782-.982a68.887,68.887,0,0,1,.4-54.5l53.807,30.1L856.9,277.448a68.761,68.761,0,1,1,111.076,80.491,68.756,68.756,0,0,1,7.446,12.781L925.685,394.6l52.734-15.881A68.782,68.782,0,0,1,965.3,442.908,68.761,68.761,0,1,1,857.272,439.5a68.782,68.782,0,0,1,2.675-84.977Z" transform="translate(-841.186 -244.965)" fill="#26a682"/><path d="M981.363,468.344a68.5,68.5,0,0,1-16.02,42.029,68.761,68.761,0,1,1-108.032-3.406C848.438,494.979,981.607,460.633,981.363,468.344Z" transform="translate(-841.198 -312.415)" opacity="0.1"/></g><path d="M157.82,481.489l7.307-.021h10.3l13.025-211.592L317.444,54.628l-5.607-6.018V33.37l-139.5,231.519Z" transform="translate(-47.9 -10.127)" fill="#f1c0c0"/><path d="M169.43,488.108h9.522l13.025-211.592L320.967,61.268,315.36,55.25,182.309,273.291Z" transform="translate(-51.423 -16.767)" opacity="0.1"/><path d="M126.91,672.814l334.229,25.576.286.021,323.461-19.893.244-.014V664.846l-356.414-6.54-297.355-.286h-2.173l-.237,1.532Z" transform="translate(-38.52 -199.69)" fill="#f1c0c0"/><path d="M126.91,672.814l334.229,25.576.286.021,323.461-19.893.244-.265V665.132h-.286l-323.7,10.81L131.361,658.02h-.049l-.585.383-1.776,1.149Z" transform="translate(-38.52 -199.69)" opacity="0.1"/><path d="M126.91,672.981l334.229,25.577V676.109L130.727,658.57l-1.776,1.149Z" transform="translate(-38.52 -199.857)" opacity="0.1"/><path d="M378.88,48.394,526.231,206.548l-4.555,278.194,12.517,1.511.209.028h12.517l1.5-267.788,275.916,92.165,4.653,164.1,10.072,1.128,3.413.383-7.9-176.995L546.137,198.016,387.984,33.6h-9.1Z" transform="translate(-114.985 -10.197)" fill="#f1c0c0"/><path d="M620.65,291.7l1.135,5.119L897.7,388.984l4.653,164.1,10.072,1.128-7.9-168.644Z" transform="translate(-188.355 -88.523)" opacity="0.1"/><path d="M378.88,48.394,526.231,206.548l-4.555,278.194,12.517,1.511L537.6,197.444,378.88,33.6Z" transform="translate(-114.985 -10.197)" opacity="0.1"/><path d="M621.42,444.118l101.2,19.928.035.007L899.9,498.97l8.115-3.253-.028-.571-.529-11.319L621.524,426.05Z" transform="translate(-188.589 -129.294)" fill="#f1c0c0"/><path d="M766.76,480.61l177.246,34.917,8.115-3.253-.028-.571Z" transform="translate(-232.696 -145.851)" opacity="0.1"/><path d="M776.49,350.56l2.737,150.687,1.414,77.308,12.461-.418,7.843-.265L798.507,352.74l-5.405-1.8-1.184-.383Z" transform="translate(-235.648 -106.385)" fill="#f1c0c0"/><path d="M776.65,350.51v.035l2.626,150.687,1.414,77.308,12.461-.418V350.51Z" transform="translate(-235.697 -106.37)" opacity="0.1"/><path d="M498.4,489.39a15.883,15.883,0,0,1,2.09,1.358,13.824,13.824,0,0,1,2.09,2.292c2.988,3.866,5.746,8.358,5.454,13.234a5.384,5.384,0,0,1-1.553,3.831c-1.233,1.052-3,1.1-4.618,1.1a9.831,9.831,0,0,1-5.119-.906c-1.518-.905-2.786-2.668-4.583-2.626a2.348,2.348,0,0,1-.766,0c-.62-.2-.745-1.017-1.149-1.532-.7-.926-2.166-.7-3.26-.293s-2.306,1.01-3.385.543a3.517,3.517,0,0,1-1.47-1.47c-2.584-4.179-3.134-9.2-3.622-14.056-.3-2.953-2.584-13.025,3.719-10.733,2.786,1,5.391,3.009,7.927,4.479Z" transform="translate(-152.747 -206.732)" fill="#3f3d56"/><path d="M497.851,493.347a3.107,3.107,0,0,0,3.824-.153,5.76,5.76,0,0,0,1.86-3.608c.7-.216,1.052.7,1.5,1.254.78.947,2.368.933,3.079,1.943.495.7.383,1.665.731,2.452.453,1.017,1.574,1.546,2.34,2.368a8.066,8.066,0,0,1,1.532,3.058l1.142,3.427a16.937,16.937,0,0,1,1.045,4.437,5.746,5.746,0,0,1-1.323,4.242c-1.532,1.651-4.047,1.825-6.269,1.776a8.062,8.062,0,0,1-2.2-.258c-1.971-.613-3.232-2.6-3.754-4.6a58.056,58.056,0,0,1-.773-6.143,24.079,24.079,0,0,0-1.741-5.837c-.613-1.449-2.3-3.608-2.271-5.147C497.071,492.56,497.434,493.02,497.851,493.347Z" transform="translate(-158.425 -209.693)" fill="#3f3d56"/><path d="M497.86,480.958a11.5,11.5,0,0,1-.564-3.058,13.311,13.311,0,0,1,1.915-5.921l-7.961,1.08a3.525,3.525,0,0,0-2.577,1.128,2.786,2.786,0,0,0,0,2.57,13.135,13.135,0,0,1,.947,2.487,12.416,12.416,0,0,0,.258,2.236,4.736,4.736,0,0,0,1.024,1.442,48.29,48.29,0,0,1,5.684,8.442c-.049-.084,4.8-3.838,4.6-5.064-.111-.7-1.511-1.532-1.957-2.2A11.207,11.207,0,0,1,497.86,480.958Z" transform="translate(-155.933 -204.36)" fill="#be6f72"/><path d="M525.906,358.04V364.9L408.423,387.817l-6.095,3.692H381.3v-3.866l115.429-27.889Z" transform="translate(-115.72 -108.655)" fill="#f1c0c0"/><path d="M525.906,367.89,408.423,390.806l-6.095,3.692H381.3L497.586,369.61Z" transform="translate(-115.72 -111.644)" opacity="0.1"/><path d="M456.055,723.979a9.1,9.1,0,0,0-11.075-2.354,2.919,2.919,0,0,0-1.017.794c-.7.975-.251,2.319-.188,3.524.16,2.939-2.18,5.328-4.284,7.383a10.127,10.127,0,0,0-2.786,3.775,3.537,3.537,0,0,0,1.233,4.179,5.133,5.133,0,0,0,1.908.529A20.6,20.6,0,0,0,446.6,742a7.32,7.32,0,0,0,5.363-3.733,3.935,3.935,0,0,1,.9-1.484c1.226-.968,3.107.167,4.5-.522,1.149-.571,1.2-1.47,1.212-2.654C458.618,730.331,458.131,726.626,456.055,723.979Z" transform="translate(-140.192 -279.83)" fill="#26a682"/><path d="M482.01,721.615a22.934,22.934,0,0,1,1.087,7.125,6.876,6.876,0,0,1-.648,4.061,5.55,5.55,0,0,1-3.629,2.09c-2.9.6-6.269.035-8.142-2.271a8.591,8.591,0,0,1-1.47-6.464c.223-1.874.7-4.068-.648-5.4-.348-.355-.8-.606-1.121-.989a3.319,3.319,0,0,1-.209-3.176,13.792,13.792,0,0,0,1.094-3.141c.056-.515,9.431.362,10.295.787,1.177.578,1,1.546,1.351,2.716C480.464,718.585,481.411,720.054,482.01,721.615Z" transform="translate(-149.431 -277.592)" fill="#26a682"/><path d="M471.353,580.642c1.839,1.191,2.549,3.531,2.835,5.7.787,5.955-.592,11.973-.7,17.984-.1,8.421,2.34,17,.258,25.152-1.247,4.876-.188,10.448-1.358,15.372-.348,1.463-.989,2.842-1.323,4.3-.7,3.169.035,6.485,1.017,9.584a9.9,9.9,0,0,1,.592,2.6,9.347,9.347,0,0,1-1.017,3.928l-4.179,9.884c-.467,1.107-2.306,1.289-3.483,1.435-2.215.265-4.688.453-6.45-.919s-2.187-3.671-2.459-5.816a89.157,89.157,0,0,1-.7-12.419,10.232,10.232,0,0,0-.286-3.225c-.383-1.191-1.226-2.222-1.456-3.483-.293-1.63.536-3.232.843-4.876a14.69,14.69,0,0,0-.07-4.52c-.272-2.229-.585-4.458-.94-6.673-.5-3.1.216-6.157.7-9.264.453-2.918-.125-5.893-.7-8.79a24.231,24.231,0,0,1-.871,6.965c-.369,1.107-.9,2.166-1.219,3.295-1.428,5.064,1.616,10.378,1.184,15.623-.2,2.452-1.163,4.876-.892,7.293a24.6,24.6,0,0,0,1.574,5.078,6.582,6.582,0,0,1,0,5.189c-2.264,4.277-.571,10.093,1.456,14.481a19.544,19.544,0,0,1,1.073,2.41c.6,1.978.1,4.1.258,6.164a3.887,3.887,0,0,1-3.267-.982c-.306-.32-.557-.7-.857-1.031a8.505,8.505,0,0,0-2.911-1.818,3.825,3.825,0,0,0-2.09-.481,4.18,4.18,0,0,0-1.985,1.233,19.46,19.46,0,0,1-2.187,1.665,2.591,2.591,0,0,1-1.114.495.982.982,0,0,1-1.024-.522,1.239,1.239,0,0,1-.077-.362,55.129,55.129,0,0,1-.411-6.338c0-3.643-4.36-6.15-4.911-9.751-.439-2.9.376-5.865.1-8.79a42.756,42.756,0,0,1-.522-4.486c0-.975.223-1.929.3-2.9a21.671,21.671,0,0,0-.049-3.225l-.216-3.364c-.209-3.322-.439-6.715-1.748-9.751a33.134,33.134,0,0,1-2.716-11.2c-.139-2.438-.049-4.876-.327-7.32a36.044,36.044,0,0,1-.648-6.617c.132-1.714.7-3.371.829-5.085.272-3.294-.982-6.5-1.964-9.654s-1.706-6.652-.418-9.7a3.183,3.183,0,0,1,.892-1.3,3.887,3.887,0,0,1,1.644-.613,127.543,127.543,0,0,1,36.373-2.32,12.079,12.079,0,0,1,5.607,1.748Z" transform="translate(-137.053 -236.682)" fill="#3f3d56"/><circle cx="11.158" cy="11.158" r="11.158" transform="translate(283.6 247.665)" fill="#be6f72"/><path d="M429.3,474.6a3.983,3.983,0,0,1,0,1.943,4.4,4.4,0,0,1-.731,1.226A31.484,31.484,0,0,1,425,481.651a6.471,6.471,0,0,0,3.336,3.295,19.37,19.37,0,0,0,4.6,1.316,4.826,4.826,0,0,0,4.513-.78l6.2-3.712a12.385,12.385,0,0,0,2.577-1.86,6.345,6.345,0,0,0,1.8-4.36,1.2,1.2,0,0,0-.223-.822,1.463,1.463,0,0,0-.85-.355,7.554,7.554,0,0,1-4.876-4.256,22.538,22.538,0,0,1-1.693-6.457l-6.61,3.483c-.982.522-1.957,1.045-2.974,1.5-.648.293-1.957.536-2.417,1.128C427.508,470.862,429.075,473.279,429.3,474.6Z" transform="translate(-136.706 -201.835)" fill="#be6f72"/><path d="M424.05,483.483a7.348,7.348,0,0,0-2.138,2.891,7.532,7.532,0,0,0,.39,4.242,126.554,126.554,0,0,1,4.179,17.964c.585,4.179.8,8.421,1.087,12.649.585,8.623,1.435,22.372,2.57,30.94,4.179.188,8.254-1.031,12.4-1.477,7.745-.822,15.721,1.059,23.306-.7-1.839-7.265-3.678-19.67-5.517-26.928a51.382,51.382,0,0,1-1.686-8.741c-.16-2.124-.063-4.256-.035-6.394.063-4.179-.167-8.358-.4-12.538a79.542,79.542,0,0,0-1.686-14.523,2.7,2.7,0,0,0-.808-1.6,3.271,3.271,0,0,0-2.431-.216,10.574,10.574,0,0,1-7.23-1.714c-.919-.627-2.152-1.393-3.009-.7a3,3,0,0,0-.7,1.484,7.418,7.418,0,0,1-4.36,4.3,21.821,21.821,0,0,1-6.171,1.268,3.03,3.03,0,0,1-1.916-.216c-.989-.606-1.059-2.786-2.305-2.932C426.5,480.425,424.788,482.779,424.05,483.483Z" transform="translate(-135.714 -205.693)" fill="#3f3d56"/><path d="M435.144,500.693c-2.57-2.459-3.7-6.025-5.572-9.055a20.157,20.157,0,0,0-4.813-5.294,14.356,14.356,0,0,1-2.619-2.222c-.662-.815-1.163-1.9-2.166-2.215a2.619,2.619,0,0,0-2.347.648,23.091,23.091,0,0,0-1.741,1.853c-2.953,3.058-8.142,3.483-10.483,7.021a5.753,5.753,0,0,0-1.247,2.612,20.241,20.241,0,0,0,3.72,14.557,4.945,4.945,0,0,0,2.577,2.09,8.066,8.066,0,0,0,.5,3.831A102.429,102.429,0,0,0,415.7,527.44a31.245,31.245,0,0,0-.933,5.008c-.488,4.256-.035,8.574-.495,12.837-.376,3.483-1.393,6.875-1.428,10.364,0,.557.049,1.219.529,1.5a1.6,1.6,0,0,0,.829.174l8.567.258c4.973.146,10,.293,14.892-.627a6.2,6.2,0,0,0,1.874-.592c1.658-.926,2.208-3.016,2.473-4.876a42.492,42.492,0,0,0,.411-7.286c1.038,3.281,2.271,6.673,5.405,8.094a12.127,12.127,0,0,0,5.37.648,101.107,101.107,0,0,0,11.695-1.205,1.539,1.539,0,0,0,1.706-1.79l.042-3.8c.084-7.724-1.832-15.108-2.577-22.8a49.558,49.558,0,0,0-.808-7.251c-.244-1-.6-1.971-.815-2.974a21.261,21.261,0,0,1-.348-2.974l-.543-7.662c-.258-3.545-.627-6.965-.9-10.5a50.844,50.844,0,0,0-1.491-10.211c-.606-2.09-1.867-4.458-4.047-4.716a8.342,8.342,0,0,0-3.4.731,13.735,13.735,0,0,1-8.358-.035,11.774,11.774,0,0,0-2.6-.7,2.557,2.557,0,0,0-2.382.989,3.573,3.573,0,0,0-.369,1.755C437.665,486.762,437.059,493.93,435.144,500.693Z" transform="translate(-130.328 -205.894)" fill="#26a682"/><path d="M424.207,506.839c-3.211-3.385-6.506-6.833-10.643-8.985a8.5,8.5,0,0,0-5.287-1.17,3.958,3.958,0,0,0-3.4,3.719c.056,1.135.745,2.138.961,3.253.251,1.254-.111,2.591.279,3.8a6.436,6.436,0,0,0,1.393,2.138l4.931,5.844c2.09,2.438,4.179,4.911,6.868,6.6s6.171,2.473,9.125,1.275a11.214,11.214,0,0,0,5-4.59c1.226-1.95,2.09-4.082,3.239-6.095a30.263,30.263,0,0,1,6.965-8.449c-1.449-.376-3.267-.905-4.179-2.09a6.9,6.9,0,0,1-.662-1.2l-1.128-2.438a2.786,2.786,0,0,0-2.09.787,17.53,17.53,0,0,1-1.553,1.581c-.982.738-2.312.94-3.2,1.783a8.489,8.489,0,0,0-.933,1.17,7.815,7.815,0,0,1-5.684,3.065Z" transform="translate(-130.599 -211.831)" fill="#3f3d56"/><path d="M457.67,481.763c2.417-4.409,2.305-9.7,3-14.676a6.7,6.7,0,0,1,1.33-3.643c1.393-1.574,3.852-1.6,5.955-1.393.62.07,1.393.362,1.358.982a1.254,1.254,0,0,1-.313.592,16.57,16.57,0,0,0-3.441,9.138c1.094.759,2.786-.8,3.838,0,.7.585.376,1.741-.042,2.577q-1.456,2.9-3,5.767a18.522,18.522,0,0,1-3.183,4.59c-.885.85-1.922,1.518-2.821,2.354-2.09,1.957-3.35,4.722-5.51,6.631a1.128,1.128,0,0,1-.7.355,1.17,1.17,0,0,1-.731-.327,10.56,10.56,0,0,1-2.633-3.183c-.822-1.518-.7-1.964.6-3.037A23.022,23.022,0,0,0,457.67,481.763Z" transform="translate(-144.37 -201.32)" fill="#be6f72"/><path d="M421.139,502.942c.418.258.933.55,1.393.334a1.448,1.448,0,0,0,.467-.453,16.393,16.393,0,0,0,1.978-3.441,1.323,1.323,0,0,0,.146-.557c0-.446-.4-.773-.766-1.031a28.389,28.389,0,0,0-6.331-3.009,13.064,13.064,0,0,0-5.712-1.128,5.447,5.447,0,0,0-3.81,1.936c-1.393,1.79.94,2.333,2.4,2.981C414.292,500.114,417.956,501.005,421.139,502.942Z" transform="translate(-131.57 -210.929)" fill="#26a682"/><path d="M423.675,521.247a1.024,1.024,0,0,0,.293.878c.2-.989-.063-2.034.146-3.03.306-1.5,1.762-2.626,1.888-4.13C423.334,514.442,423.7,519.631,423.675,521.247Z" transform="translate(-136.3 -217.393)" opacity="0.1"/><path d="M576.2,358.04V364.9l-28.321,1.72-.857-6.868Z" transform="translate(-166.011 -108.655)" opacity="0.2"/><path d="M418.377,454.55c1.769-1.442.745-4.465,1.943-6.4a6.219,6.219,0,0,1,3.03-2.09,13.784,13.784,0,0,1,4.423-1.226,5.133,5.133,0,0,1,4.179,1.539c.453.515.759,1.142,1.184,1.679a4.528,4.528,0,0,0,4.388,1.518c.926-.209,1.888-.913,1.825-1.86a2.626,2.626,0,0,0-.836-1.491l-1.992-2.208c-2.264-2.508-4.778-5.168-8.1-5.8a13.9,13.9,0,0,0-6.91.926c-.9.3-1.908.745-2.159,1.658-.167.627.084,1.309-.063,1.943-.286,1.261-1.9,1.686-2.654,2.744s-.522,2.313-.738,3.483a30.458,30.458,0,0,0-.919,3.524c-.049.731.32,2.09,1.142,2.354S417.869,453.679,418.377,454.55Z" transform="translate(-133.663 -194.069)" fill="#3f3d56"/><path d="M438.416,444.215a20.9,20.9,0,0,0-3.706-8.47,14.843,14.843,0,0,0-6.6-5.238,9.445,9.445,0,0,0-8.212.648,11.924,11.924,0,0,0-4.1,5.175c-1.8,3.887-2.473,8.637-.376,12.37.836-1.017,2.271-.557,3.538-.926,1.588-.453,2.932-1.511,4.444-2.173C427.968,443.589,433.54,445.218,438.416,444.215Z" transform="translate(-133.405 -191.578)" fill="#fed253"/><path d="M417.435,448.518c-.16-1.254-.265-2.71.627-3.6a.453.453,0,0,1,.369-.167.481.481,0,0,1,.286.251,15.593,15.593,0,0,1,1.309,2.563,2.661,2.661,0,0,0-2.786,1.08" transform="translate(-134.351 -196.096)" opacity="0.1"/><path d="M440.747,443.571l-.251-2.487a1.135,1.135,0,0,1,.049-.613.787.787,0,0,1,1.017-.279,2.089,2.089,0,0,1,.815.815,14.629,14.629,0,0,1,1.435,2.835,8.428,8.428,0,0,0-3.392.042" transform="translate(-141.385 -194.688)" opacity="0.1"/><path d="M425.661,502.21v5.684l-4.8.32H395.62v-6Z" transform="translate(-120.065 -152.406)" opacity="0.1"/><path d="M390.89,459.211v6H360.848L281.04,365.242V360.52h16.731Z" transform="translate(-85.294 -109.408)" fill="#f1c0c0"/><path d="M390.89,459.211v6H360.848L281.04,365.242V360.52h16.731Z" transform="translate(-85.294 -109.408)" opacity="0.1"/><path d="M390.89,459.211v6H360.848L281.04,365.242V360.52l80.24,98.691Z" transform="translate(-85.294 -109.408)" opacity="0.1"/><path d="M303.524,731.776a2.09,2.09,0,0,1-1.825,2.459c-1.936.655-3.991,1.3-5.363,2.786s-1.644,4.235,0,5.44a5.288,5.288,0,0,0,2.786.759c3.155.216,6.443.174,9.306-1.163,2.048-.947,3.977-2.563,6.227-2.417,1.163.07,2.4.613,3.441.084s1.33-2.006,1.337-3.239a23.982,23.982,0,0,0-1.149-7.585c-.1-.334-4.534-.592-5.064-.7l-5.37-.7c-1.017-.132-3.211-.9-4.012-.049S303.524,730.766,303.524,731.776Z" transform="translate(-97.316 -281.77)" fill="#26a682"/><path d="M353.079,704.363a16.821,16.821,0,0,0,1.1,3.65c.745,1.895,1.7,3.908,3.524,4.827a6.291,6.291,0,0,0,5.377-.258,4.43,4.43,0,0,0,1.79-1.358,5.391,5.391,0,0,0,.7-3.127,17.085,17.085,0,0,0-1.393-7.878c-1.059-2.09-2.9-3.887-2.932-6.2l-6.345,1.226a1.811,1.811,0,0,0-.933.369,1.608,1.608,0,0,0-.4.759A20.735,20.735,0,0,0,353.079,704.363Z" transform="translate(-114.823 -271.742)" fill="#26a682"/><path d="M244.318,608.858a10.369,10.369,0,0,0,1.017,6.582c1.17,1.936,3.636,3.218,5.767,2.445a.843.843,0,0,0,.522-.4.982.982,0,0,0-.091-.7,10.281,10.281,0,0,1,.216-7.745c.139-.32.439-.7.766-.571a.7.7,0,0,1,.313.32,3.643,3.643,0,0,1,.488,1.922,7.147,7.147,0,0,0-.056,1.846c.132.6.773,1.163,1.33.905a1.393,1.393,0,0,0,.634-.9c1.553-4.493.85-9.4.139-14.1a.738.738,0,0,0-.829-.773c-3.288-.327-5.085-1.114-6.965,1.943C245.955,602.213,244.318,605.758,244.318,608.858Z" transform="translate(-81.838 -242.407)" fill="#26a682"/><path d="M298.67,596.589a42.714,42.714,0,0,0-1.435,20.074l.731,6.032c.251,2.034.495,4.061.85,6.074a16.129,16.129,0,0,1,.369,3.155,16.9,16.9,0,0,1-.495,3.1,36.224,36.224,0,0,0-.731,6.478c-.077,3.483.355,6.965.627,10.448a116.355,116.355,0,0,1-.244,20.84,7.815,7.815,0,0,0,1.142,5.37,6.91,6.91,0,0,1,1.01,1.658c.522,1.6-.7,3.19-1.01,4.827a4.876,4.876,0,0,0,4.054,5.572c5.572.662,11.3.362,16.32,2.911.529-1.546-.627-3.3-.1-4.876.334-.975,1.254-1.609,1.881-2.431a7.077,7.077,0,0,0,1.2-4.249,15.525,15.525,0,0,0-1.031-5.76c-.592-1.532-1.442-3.044-1.393-4.688a5.922,5.922,0,0,0-.042-2.4,3.754,3.754,0,0,0-.9-1.121,14.161,14.161,0,0,1-3.643-8.254,38.017,38.017,0,0,1,.293-9.152c.341-2.884.8-5.927,2.633-8.177a52.47,52.47,0,0,1,1.47-20.373c.181-.613.467-1.323,1.094-1.47a1.56,1.56,0,0,1,1.337.529,9.13,9.13,0,0,1,2.09,3.928,8.566,8.566,0,0,1,.655,4.757c-.167.7-.5,1.31-.7,1.978a5.865,5.865,0,0,0,.209,4.089,3.928,3.928,0,0,1,.5,1.539,4.262,4.262,0,0,1-.418,1.337,6.157,6.157,0,0,0,.578,4.98,18.031,18.031,0,0,0,3.253,3.991,14.627,14.627,0,0,0,.453,8.052,1.017,1.017,0,0,1,.091.773c-.125.265-.446.362-.7.55-.7.571-.265,1.651.2,2.4a54.929,54.929,0,0,0,4.228,5.865c1.393,1.665,1.268,4.876,3.343,5.475a6.268,6.268,0,0,0,2.647,0c2.048-.313,4.332-.906,5.335-2.716a7.31,7.31,0,0,1,1.219-2.208c.641-.557,1.47-.655,1.825-1.323s-.042-1.546.077-2.319.794-1.393,1.01-2.208c.515-1.881-1.679-3.427-1.978-5.349-.432-2.786,3.079-4.876,2.932-7.662-.306-6.053-.5-12.133-.815-18.186a131.132,131.132,0,0,1-.167-16.292c.244-3.378.7-6.917-.543-10.058-1.783-4.43-6.7-6.917-11.458-7.39s-9.5.655-14.216,1.393a89.855,89.855,0,0,1-23.647.495Z" transform="translate(-97.755 -241.568)" fill="#3f3d56"/><circle cx="11.158" cy="11.158" r="11.158" transform="translate(203.896 266.13)" fill="#fbbebe"/><path d="M311.308,501.811a4.757,4.757,0,0,1-4.548,2.877c-.4,1.672.564,3.357,1.672,4.674a19.837,19.837,0,0,0,18.987,6.512,9.369,9.369,0,0,0,3.74-1.56,8.3,8.3,0,0,0,2.856-4.945,24.585,24.585,0,0,0,.272-5.816,1.5,1.5,0,0,0-.306-1.073,1.532,1.532,0,0,0-.975-.32c-2.354-.209-4.813-.3-6.882-1.456s-3.538-3.768-2.542-5.914c-.16.334-4.228.495-4.764.564-1.679.237-3.357.5-5.029.808a9.147,9.147,0,0,0-2.361.446c-1.01.522-.634.265-.4,1.212C311.384,499.269,311.907,500.307,311.308,501.811Z" transform="translate(-100.795 -211.282)" fill="#fbbebe"/><path d="M302.113,511.072a18.48,18.48,0,0,1-4.465-.495,6.269,6.269,0,0,1-3.664-2.445c-.515-.78-.85-1.762-1.672-2.2-1.344-.7-2.877.481-3.949,1.56a14.348,14.348,0,0,1-3.357,2.7c-1.491.787-3.232,1.066-4.639,1.992a11.659,11.659,0,0,0-2.786,3.009l-9.87,13.443c-3.963,5.405-7.411,11.207-10.942,16.912-3.058,4.938-4.66,10.622-6.965,15.951a1.783,1.783,0,0,0-.216,1.073c.084.362.522.655.829.446-1.038,1.031-.125,2.786-.369,4.235a5.2,5.2,0,0,1-1.658,2.6,13.093,13.093,0,0,1,4.6.216,14.088,14.088,0,0,1,4.346,2.09c.843-.132.766-1.63,1.393-2.187.376-.327.933-.286,1.428-.383,1.86-.362,2.6-2.6,4.026-3.859,1.191-1.052,2.877-1.393,4.137-2.382,2.048-1.609,2.487-4.472,3.559-6.847.912-2.013,2.347-3.768,3.148-5.83a25.113,25.113,0,0,1,1.518-4.019c1.191-1.992,3.434-3.051,5.572-4.005a9.228,9.228,0,0,1,4.242-1.135c-.077,3.239-.488,6.429.216,9.591.244,1.114.585,2.2.878,3.309a62.3,62.3,0,0,1,1.707,15.324,46.626,46.626,0,0,1,9.751-1.17c2.584-.077,5.161.258,7.745.209,3.065-.056,6.095-.648,9.159-.857a17.11,17.11,0,0,1,8.978,1.393,85.294,85.294,0,0,1,.369-13.234l.738-6.923a42.533,42.533,0,0,1,.926-5.976c.4-1.588.989-3.12,1.435-4.7,1.567-5.572,1.282-11.521.982-17.323a21.835,21.835,0,0,0-2.654-8.567,23.182,23.182,0,0,0-1.672-2.842,16.459,16.459,0,0,0-14.39-6.756,2.912,2.912,0,0,0-1.031.223,3.434,3.434,0,0,0-1.316,1.567,17.065,17.065,0,0,1-6.067,6.3Z" transform="translate(-83.11 -213.758)" fill="#3f3d56"/><path d="M304.272,483.692c.313-.7,1.156-.954,1.672-1.511.989-1.059.543-2.751.7-4.179a6,6,0,0,1,3.97-4.583,12.83,12.83,0,0,1,6.269-.4,6.067,6.067,0,0,1,2.828.94c.362.265.7.606,1.038.85a2.786,2.786,0,0,0,3.789-.885c-2.466-2.967-5.2-6.1-8.943-7.014a18.343,18.343,0,0,0-3.908-.369,12.689,12.689,0,0,0-5.126.6,8.545,8.545,0,0,0-4.5,5.2,25.262,25.262,0,0,0-1.094,6.965,26.238,26.238,0,0,0,0,4.736,13.1,13.1,0,0,0,2.326,5.969,1.8,1.8,0,0,0,.7.648C307.162,492.05,304.014,484.27,304.272,483.692Z" transform="translate(-99.032 -202.706)" fill="#3f3d56"/><path d="M323.16,469.089c-.383-3.281-2.723-5.99-5.21-8.17a19.21,19.21,0,0,0-7-4.214,9.354,9.354,0,0,0-7.9.961,12.136,12.136,0,0,0-3.845,5.287,16.64,16.64,0,0,0-1.679,7.662,8.26,8.26,0,0,0,3.74,6.631,7.035,7.035,0,0,1,3.622-2.333,177.34,177.34,0,0,1,18.27-5.823Z" transform="translate(-98.021 -199.588)" fill="#fed253"/><path d="M303.67,472.72c.223,0,.369.23.481.418a17.655,17.655,0,0,1,1.456,2.786c-.815.174-2.215.369-2.619-.348C302.771,475.213,303.029,472.685,303.67,472.72Z" transform="translate(-99.656 -204.584)" opacity="0.1"/><path d="M326.632,468.961c-.167.16-.362-.167-.362-.4v-2.7a.4.4,0,0,1,.049-.216.328.328,0,0,1,.23-.111c.564-.063,1.031.418,1.393.878a14.711,14.711,0,0,1,1.428,2.375l-2.946-.091" transform="translate(-106.744 -202.4)" opacity="0.1"/><path d="M369.858,526.909a18.214,18.214,0,0,1,2.048-1.679c1.929-1.289,4.263-1.8,6.429-2.619s4.367-2.152,5.21-4.312a10.239,10.239,0,0,0,.4-4.179,4.178,4.178,0,0,0-.306-1.72,3.42,3.42,0,0,0-1.1-1.2c-2.939-2.173-6.882-2.347-10.532-2.124a66.011,66.011,0,0,0-23.271,5.809,2.02,2.02,0,0,0-.975.7,1.992,1.992,0,0,0-.188.968,16.019,16.019,0,0,0,.787,6.067c.961,2.48,2.939,4.479,3.768,7.007.376,1.135.5,2.34.829,3.483a4.876,4.876,0,0,0,1.957,2.911c2.751,1.644,5.349-.564,7.258-2.278Z" transform="translate(-113.2 -215.596)" fill="#3f3d56"/><path d="M316.975,534.073l-3.531-7.7a26.957,26.957,0,0,1-1.337-3.294c-.4-1.344-.6-2.737-.975-4.089-1.24-4.5-4.367-8.247-5.893-12.656a2.4,2.4,0,0,0-.571-1.066,1.86,1.86,0,0,0-1.553-.279c-2.131.369-3.8,1.992-5.746,2.911-.905.418-1.881.7-2.786,1.177a3.483,3.483,0,0,0-1.867,2.222,5.432,5.432,0,0,0,.759,3.127c1.895,4.277,2.326,9.055,2.41,13.736.063,3.148-.1,6.526-1.957,9.055-3.573,4.876-1.289,12.036.049,17.936.16.7.348,1.449.46,2.187a20.1,20.1,0,0,1,.16,2.786c0,3.127-.174,6.352-1.484,9.187a10.281,10.281,0,0,0,4.179,1.184q6.067.773,12.182,1.087a13.277,13.277,0,0,0,3.824-.2,6.965,6.965,0,0,0,5.147-6.826c.223,1.929.634,4.026,2.034,5.363s3.441,1.539,5.342,1.644a99.315,99.315,0,0,0,16.09-.453,2.785,2.785,0,0,0,.989-.23c1.031-.515,1.087-1.936,1-3.079-.153-2.138-.313-4.277-.571-6.4a26.2,26.2,0,0,1-.334-4.1,23.562,23.562,0,0,1,.7-4.179,47.4,47.4,0,0,0,1.358-13.234,22.332,22.332,0,0,1-.132-3.267c.181-2.459,1.477-4.8,1.233-7.244-.7-7.188-1.261-14.564-3.267-21.5a5.573,5.573,0,0,0-1.9-3.281c-1.393-.933-3.35-.446-4.945-1.038a12.373,12.373,0,0,1-2.124-1.261,9.751,9.751,0,0,0-4.8-1.477,4.074,4.074,0,0,0-3.483,1.268,5.057,5.057,0,0,0-.7,1.9c-1.01,4.249-2.194,8.449-3.378,12.649l-1.135,4.026-3.044,10.81C317.08,532.631,317.282,532.986,316.975,534.073Z" transform="translate(-96.349 -213.113)" fill="#26a682"/><path d="M336.537,400.25l67.375,70.8v6H373.871l-50.631-66.08" transform="translate(-98.1 -121.464)" fill="#f1c0c0"/><path d="M336.537,400.25l67.375,70.8v6H373.871l-50.631-66.08" transform="translate(-98.1 -121.464)" opacity="0.1"/><path d="M324.313,414.31l.216.077L374.3,475.319h29.609v6H373.871l-50.631-66.08Z" transform="translate(-98.1 -125.731)" opacity="0.1"/><path d="M344.379,502.942c-2.438,1.066-5.147,2.431-5.879,4.994a2.5,2.5,0,0,0,2.466,3.35,8.358,8.358,0,0,0,3.35-.613l14.383-4.75c.39-.125.836-.313.933-.7a1.2,1.2,0,0,0-.139-.7c-.446-1.087-.885-3.309-1.818-4.068-.766-.613-2.285-.4-3.211-.383C350.9,500.107,347.548,501.549,344.379,502.942Z" transform="translate(-110.414 -212.872)" fill="#26a682"/><path d="M364.072,505.854a23.133,23.133,0,0,1,7.139,1.108,12.718,12.718,0,0,1,5.913,4.04,4.429,4.429,0,0,1,.933,1.825c.139.7,2.41,1.115,1.908,1.588,1.525-.244,1.163.474,2.71.46a5.12,5.12,0,0,0,4.144-1.644,5.384,5.384,0,0,0,.815-3.406,5.8,5.8,0,0,0-.46-2.41c-.7-1.463-2.3-2.25-3.775-2.925L370.96,498.8a8.26,8.26,0,0,0-2.3-.815,8.593,8.593,0,0,0-2.027.049L361,498.68a8.449,8.449,0,0,1,3.852,7.432" transform="translate(-117.284 -212.24)" fill="#3f3d56"/></g></svg>