<svg xmlns="http://www.w3.org/2000/svg" xmlns:xlink="http://www.w3.org/1999/xlink" width="723.754" height="488.857" viewBox="0 0 723.754 488.857"><defs><linearGradient id="a" x1="0.5" y1="1" x2="0.5" gradientUnits="objectBoundingBox"><stop offset="0" stop-color="gray" stop-opacity="0.251"/><stop offset="0.54" stop-color="gray" stop-opacity="0.122"/><stop offset="1" stop-color="gray" stop-opacity="0.102"/></linearGradient><linearGradient id="b" x1="0.5" y1="1" x2="0.5" y2="-0.001" xlink:href="#a"/></defs><g transform="translate(-182.452 -125.88)"><circle cx="113.198" cy="113.198" r="113.198" transform="translate(679.811 125.88)" fill="#3f3d56"/><path d="M886.356,436.038c-3.941-3.941-13.419-9.886-18.119-12.106-5.424-2.6-7.418-2.559-11.256.215-3.193,2.265-5.266,4.45-8.935,3.646s-10.939-6.285-17.972-13.295-12.491-14.235-13.272-17.96,1.37-5.753,3.658-8.946c2.763-3.839,2.842-5.832.215-11.256-2.265-4.7-8.142-14.155-12.117-18.119s-4.835-3.092-7.01-2.265a40.537,40.537,0,0,0-6.421,3.4c-3.941,2.639-6.149,4.835-7.7,8.142s-3.307,9.444,5.719,25.514a142.336,142.336,0,0,0,25.027,33.373h0a142.549,142.549,0,0,0,33.486,25.072c16.058,9.06,22.207,7.259,25.514,5.719s5.5-3.726,8.131-7.7a40.013,40.013,0,0,0,3.4-6.421C889.448,440.873,890.331,439.99,886.356,436.038Z" transform="translate(-43.07 -167.766)" fill="#f2f2f2"/><circle cx="113.198" cy="113.198" r="113.198" transform="translate(435.169 297.817)" fill="#3f3d56"/><path d="M674.119,522.468l-33.894,34.483a.611.611,0,0,0,0,.883l23.781,25.287a4.092,4.092,0,1,1-5.787,5.787l-23.657-25.2a.645.645,0,0,0-.906,0l-5.764,5.82a25.332,25.332,0,0,1-18.119,7.621,25.888,25.888,0,0,1-18.436-7.836l-5.537-5.662a.646.646,0,0,0-.906,0l-23.6,25.14a4.092,4.092,0,1,1-5.786-5.787l23.69-25.23a.679.679,0,0,0,0-.883L545.3,522.412a.623.623,0,0,0-1.064.441v69a10.1,10.1,0,0,0,10.067,10.067H665.139a10.1,10.1,0,0,0,10.067-10.067V522.91a.623.623,0,0,0-1.087-.442Z" transform="translate(-61.36 -145.653)" fill="#f2f2f2"/><path d="M609.288,570.237a17.145,17.145,0,0,0,12.366-5.1l49.363-50.246a9.853,9.853,0,0,0-6.229-2.265H553.878a9.784,9.784,0,0,0-6.228,2.265l49.374,50.246A17.077,17.077,0,0,0,609.288,570.237Z" transform="translate(-60.911 -146.924)" fill="#f2f2f2"/><circle cx="113.198" cy="113.198" r="113.198" transform="translate(182.452 213.281)" fill="#3f3d56"/><path d="M370.127,430.16,325,534.276l4.213,4.213,40.926-18.051,40.926,18.051,4.213-4.213Z" transform="translate(-76.346 -157.845)" fill="#f2f2f2"/><path d="M847.251,609.63q-1.54-3.76-3.159-7.5a22.256,22.256,0,0,0-3.862-6.67,7.063,7.063,0,0,0-2.265-1.7,9.654,9.654,0,0,0-2.956-.589,23.588,23.588,0,0,0-4.643-.124c-.6-.181-1.28-.419-1.948-.691a16.171,16.171,0,0,0,12.049-15v-.691A16.137,16.137,0,0,0,824.4,560.46a15.855,15.855,0,0,0-8.437,2.412,15.14,15.14,0,0,0-16.986,8.187,18.719,18.719,0,0,0-5.775,13.929v.714c.294,8.8,5.979,15.854,13.159,16.568a7.54,7.54,0,0,0-2.084,1.393c-2.2,2.118-2.559,5.481-2.8,8.539l-.17,2.265-3.805,1.359a.7.7,0,0,0-.17,1.234l3.635,2.593v.645a2.828,2.828,0,0,0,.068.736,5.2,5.2,0,0,0-1.4,2,9.264,9.264,0,0,0-.328,3.669l.136,3.16a24.812,24.812,0,0,0,.962,7.032c.476,1.4,2.537,4.79,4.02,4.813-1.37,6.228-1.733,19.365-1.733,19.365-.17.17.306.328,1.132.464.815,6.251,3.477,23.781,8.2,31.493a66.368,66.368,0,0,1,1.778,7.655s1.348,16.658,3.125,21.607c1.517,4.213,2.718,14.609,3.046,17.621a1.732,1.732,0,0,0-1.257,1.291c-.895,2.7-6.693,6.795-6.693,6.795a28.047,28.047,0,0,0-5.005,3.2c-1.823,1.642-1.755,3.126,6.342,2.2,15.628-1.8,18.3-6.795,18.3-6.795s-.249-.838-.623-1.925a20.909,20.909,0,0,0-2.05-4.836c-.227-.215-.453.147-.725.714a96.954,96.954,0,0,1-1.065-21.867s.442-7.655-1.789-13.057a24.718,24.718,0,0,1,0-8.55c.895-3.6-3.567-21.165-3.567-21.165L819.28,662.99a3.713,3.713,0,0,1,.714,1.506l.068.26.068.374a.7.7,0,0,0,.181.351c1.744,7.248,6.523,27.326,6.523,30.27,0,3.6,4.462,12.6,4.462,12.6s1.778,14.858,4.9,20.7c2.378,4.45,2.435,10.973,2.321,13.85h0s-.532,3.7-1.427,4.6a10.939,10.939,0,0,0-1.687,2.933l-.1.215s-1.336,2.707-.442,3.159a21.935,21.935,0,0,0,10.713,1.348s1.789-2.265,1.789-3.148a14.248,14.248,0,0,0-.2-1.608c-.328-2.129-.94-5.481-.951-5.515.374-1.449-1.132-5.481-1.132-5.481l-.453-12.6a58.185,58.185,0,0,0-3.126-25.22s-2.265-8.1-1.778-10.35-.895-26.114-.895-26.114l-.136-.34a25.815,25.815,0,0,1,.136-5.062c.442-5.4-1.336-16.658-1.789-17.1a14.844,14.844,0,0,1-.634-3.726c.1-.94.407-3.692.827-7.112a127.866,127.866,0,0,0,13.159-1.132,1.642,1.642,0,0,0,1.132-.453,1.584,1.584,0,0,0,.26-.917C852.3,622.495,849.822,615.9,847.251,609.63Zm-8.98,14.28c.464-3.227.963-6.353,1.461-8.674l.068.2a63.023,63.023,0,0,1,2.151,7.134A24.254,24.254,0,0,1,838.271,623.91Z" transform="translate(-40.889 -140.589)" fill="url(#a)"/><path d="M802.37,648.784s2.673,24.042,8.459,33.384a64.784,64.784,0,0,1,1.778,7.565s1.336,16.466,3.114,21.358,3.114,18.255,3.114,18.255,6.228,7.112,8.459,1.336a93.791,93.791,0,0,1-1.336-23.147s.442-7.565-1.778-12.91a24.145,24.145,0,0,1,0-8.448c.883-3.567-3.567-20.916-3.567-20.916l-3.556-17.36Z" transform="translate(-39.004 -129.01)" fill="#be6f72"/><path d="M830.116,725.719s-2.673,4.892-18.243,6.67c-8.086.917-8.142-.544-6.319-2.174a28.174,28.174,0,0,1,4.983-3.171s5.787-4,6.67-6.67,4.009-.442,4.009-.442c4.45,6.67,5.345-1.789,6.228-.895a20.067,20.067,0,0,1,2.05,4.768C829.867,724.881,830.116,725.719,830.116,725.719Z" transform="translate(-38.856 -119.598)" fill="#ff6f61"/><path d="M830.116,725.154s-2.673,4.892-18.243,6.67c-8.086.917-8.142-.544-6.319-2.174,1.268.8,3.828,1.132,8.98-.94,7.417-3.035,12.8-4.79,14.96-5.47C829.867,724.316,830.116,725.154,830.116,725.154Z" transform="translate(-38.856 -119.032)" opacity="0.1"/><path d="M824.6,707.534s.442-7.565-1.778-12.91a24.128,24.128,0,0,1,0-8.448c.883-3.567-3.567-20.916-3.567-20.916L815.7,647.9l-3.08.181,3.522,17.179s4.451,17.349,3.567,20.916a24.138,24.138,0,0,0,0,8.448c2.265,5.345,1.778,12.91,1.778,12.91a93.79,93.79,0,0,0,1.336,23.147,3.9,3.9,0,0,1-1.291,1.834c1.654.747,3.4.713,4.405-1.834A93.793,93.793,0,0,1,824.6,707.534Z" transform="translate(-37.818 -129.01)" opacity="0.1"/><path d="M824.284,562.42a15.859,15.859,0,0,0-8.4,2.389,15.118,15.118,0,0,0-16.987,8.1,18.436,18.436,0,0,0-5.764,13.77c0,9.467,6.376,17.134,14.235,17.134,5.662,0,10.622-4.031,12.9-9.863a15.629,15.629,0,0,0,4.009.521,16.024,16.024,0,0,0,0-32.048Z" transform="translate(-40.483 -140.33)" fill="#3f3d56"/><path d="M834.33,650.65l1.336,3.556s1.336,23.589.883,25.819,1.789,10.192,1.789,10.192a56.972,56.972,0,0,1,3.114,24.914l.442,12.457s1.778,4.892.894,5.787-7.6-.793-7.6-.793.895-9.342-2.265-15.129-4.892-20.474-4.892-20.474-4.451-8.9-4.451-12.457-7.123-32.489-7.123-32.489Z" transform="translate(-37.985 -128.645)" fill="#be6f72"/><path d="M801.584,653.536s.453-16.024,2.265-20.916a33.215,33.215,0,0,0,1.982-7.1s26.94,4.87,29.171,3.092c0,0,.442,6.228.895,6.67s2.265,11.574,1.778,16.919,0,5.334,0,5.334-18.255,2.672-18.7,0-1.778-2.661-1.778-2.661S800.7,654.374,801.584,653.536Z" transform="translate(-39.46 -131.973)" fill="#3f3d56"/><g transform="translate(762.125 496.638)" opacity="0.1"><path d="M816.268,650.367s-11.256-.306-14.654-.917v.917c-.883.883,15.582,1.336,15.582,1.336a1.133,1.133,0,0,1,.611.249C817.208,650.367,816.268,650.367,816.268,650.367Z" transform="translate(-801.58 -625.442)"/><path d="M833.844,634.92c-.453-.442-.894-6.67-.894-6.67a1.916,1.916,0,0,1-.759.272c.159,1.88.464,4.768.759,5.062s2.265,11.573,1.778,16.919,0,5.334,0,5.334-14.438,2.118-17.938.7a5.369,5.369,0,0,0,.136.634c.442,2.673,18.7,0,18.7,0s-.453,0,0-5.334S834.286,635.373,833.844,634.92Z" transform="translate(-799.565 -628.25)"/><path d="M816.268,650.367s-11.256-.306-14.654-.917v.917c-.883.883,15.582,1.336,15.582,1.336a1.133,1.133,0,0,1,.611.249C817.208,650.367,816.268,650.367,816.268,650.367Z" transform="translate(-801.58 -625.442)"/><path d="M833.844,634.92c-.453-.442-.894-6.67-.894-6.67a1.916,1.916,0,0,1-.759.272c.159,1.88.464,4.768.759,5.062s2.265,11.573,1.778,16.919,0,5.334,0,5.334-14.438,2.118-17.938.7a5.369,5.369,0,0,0,.136.634c.442,2.673,18.7,0,18.7,0s-.453,0,0-5.334S834.286,635.373,833.844,634.92Z" transform="translate(-799.565 -628.25)"/></g><path d="M820.021,587.715a5.9,5.9,0,0,0,1.7,2.2,3.806,3.806,0,0,0,1.6.691c-1,.578-2.083,1.008-3.08,1.586a54.782,54.782,0,0,0-4.53,3.4,9.215,9.215,0,0,1-5.2,2.016,6.365,6.365,0,0,0,.724-6.33,5.908,5.908,0,0,1-.793-2.2c0-1.28,1.132-2.265,2.185-2.944.849-.578,1.721-1.133,2.6-1.687.691-.43,1.733-1.336,2.6-1.3s.974.8,1.132,1.6A12.559,12.559,0,0,0,820.021,587.715Z" transform="translate(-37.97 -137.586)" fill="#be6f72"/><path d="M820.021,587.715a5.9,5.9,0,0,0,1.7,2.2,3.806,3.806,0,0,0,1.6.691c-1,.578-2.083,1.008-3.08,1.586a54.782,54.782,0,0,0-4.53,3.4,9.215,9.215,0,0,1-5.2,2.016,6.365,6.365,0,0,0,.724-6.33,5.908,5.908,0,0,1-.793-2.2c0-1.28,1.132-2.265,2.185-2.944.849-.578,1.721-1.133,2.6-1.687.691-.43,1.733-1.336,2.6-1.3s.974.8,1.132,1.6A12.559,12.559,0,0,0,820.021,587.715Z" transform="translate(-37.97 -137.586)" opacity="0.1"/><circle cx="10.237" cy="10.237" r="10.237" transform="translate(781.499 455.916)" fill="#be6f72"/><path d="M842.373,730.878c0,.895-1.778,3.114-1.778,3.114a22.038,22.038,0,0,1-10.679-1.336c-.894-.442.442-3.114.442-3.114l.1-.215a10.8,10.8,0,0,1,1.687-2.9c.883-.883,1.416-4.53,1.416-4.53,2.763-4.53,7.667,1.959,7.667,1.959s.623,3.4.951,5.458A15.571,15.571,0,0,1,842.373,730.878Z" transform="translate(-36.491 -119.423)" fill="#ff6f61"/><path d="M842.373,729.826c0,.894-1.778,3.114-1.778,3.114a22.038,22.038,0,0,1-10.679-1.336c-.894-.442.442-3.114.442-3.114l.1-.215a21.518,21.518,0,0,0,9.694,1.993l2.027-2.027C842.294,729,842.373,729.6,842.373,729.826Z" transform="translate(-36.491 -118.37)" opacity="0.1"/><circle cx="10.011" cy="10.011" r="10.011" transform="translate(762.265 434.773)" fill="#be6f72"/><path d="M803.279,600.453c-2.2,2.095-2.56,5.413-2.786,8.437l-.34,4.428a22.32,22.32,0,0,0-.079,3.59c0,.736.181,1.484.249,2.265s.091,1.767.1,2.661v6.546a7.721,7.721,0,0,0,.725,3.929,2.673,2.673,0,0,0,3.4,1.223,3.873,3.873,0,0,0,1.4-2.174,33.8,33.8,0,0,0,2.265-8.289c.091-.985.1-1.97.193-2.956s.26-2.016.408-3.012c.634-4.167.917-8.38,1.2-12.581.079-1.246,1.2-6.149-.43-6.693-.793-.26-2.435.555-3.193.827A8.988,8.988,0,0,0,803.279,600.453Z" transform="translate(-38.688 -135.648)" fill="#be6f72"/><path d="M803.279,600.453c-2.2,2.095-2.56,5.413-2.786,8.437l-.34,4.428a22.32,22.32,0,0,0-.079,3.59c0,.736.181,1.484.249,2.265s.091,1.767.1,2.661v6.546a7.721,7.721,0,0,0,.725,3.929,2.673,2.673,0,0,0,3.4,1.223,3.873,3.873,0,0,0,1.4-2.174,33.8,33.8,0,0,0,2.265-8.289c.091-.985.1-1.97.193-2.956s.26-2.016.408-3.012c.634-4.167.917-8.38,1.2-12.581.079-1.246,1.2-6.149-.43-6.693-.793-.26-2.435.555-3.193.827A8.988,8.988,0,0,0,803.279,600.453Z" transform="translate(-38.688 -135.648)" opacity="0.1"/><path d="M823.45,588.16s-7.565,5.787-12.015,7.123c0,0-2.639,3.012-3.091,3.737s-1.359,8.72-2.265,10.509-3.114,5.787,0,9.784c0,0,.883,4.009.442,5.345s-2.061,6.228-.589,6.455,5.934,3.329,9.931,2.446,18.923,3.4,18.923,3.4,2.469-22.932,4.258-26.986l-4.009-1.336s-11.12-6.67-4.45-16.907C830.573,591.727,824.322,590.391,823.45,588.16Z" transform="translate(-39.18 -136.921)" fill="#ff6f61"/><path d="M796.873,612.167l9.2,6.511a.679.679,0,0,0,.8,0l2.491-1.869a.7.7,0,0,0,0-1.064l-7.078-6.285a.68.68,0,0,0-.691-.136l-4.541,1.631a.691.691,0,0,0-.181,1.212Z" transform="translate(-39.041 -134.124)" fill="#3f3d56"/><path d="M799.705,631.2a24.651,24.651,0,0,1-.963-6.942l-.136-3.137a9.058,9.058,0,0,1,.328-3.624,5.922,5.922,0,0,1,3.816-3.341,13.182,13.182,0,0,1,5.2-.374,1.338,1.338,0,0,1,.668.181,1.245,1.245,0,0,1,.362.612,4.1,4.1,0,0,1,.2,3.272,3.393,3.393,0,0,1-1.042,1.076c-1.235.883-2.673,1.472-3.839,2.435a1.393,1.393,0,0,0-.521.657,1.532,1.532,0,0,0,0,.714,11.416,11.416,0,0,0,.589,1.823,1.8,1.8,0,0,0,.51.77c.215.181.5.249.725.419.487.4,1.506.917,1.45,1.54-.17,2.265-1.529,4.8-2.061,7.044C803.974,638.707,800.362,633.113,799.705,631.2Z" transform="translate(-38.818 -133.542)" fill="#be6f72"/><g transform="translate(773.671 472.382)" opacity="0.1"><path d="M812.229,628.263h-.249a7.625,7.625,0,0,0,2.91,0h.283a10.19,10.19,0,0,0-2.944,0Z" transform="translate(-811.98 -604.006)"/><path d="M833.341,606.83c-1.6,3.59-3.952,23.034-4.371,26.9,1.563.408,2.593.7,2.593.7s2.446-22.875,4.235-26.929Z" transform="translate(-809.73 -606.83)"/></g><path d="M830.607,603.038a3.4,3.4,0,0,0,1.461,2.208,19.605,19.605,0,0,1,2.593,2.627,18.6,18.6,0,0,1,2.571,5.153,63.169,63.169,0,0,1,2.141,7.044c-5.662,2.627-12.094,2.5-18.119,4.235a14.462,14.462,0,0,0-6.795,4.02,9.365,9.365,0,0,0-2.5,7.372.961.961,0,0,0,.136.442.951.951,0,0,0,.793.317,6.794,6.794,0,0,0,4.156-1.427,19.77,19.77,0,0,0,3.182-3.126,5.118,5.118,0,0,1,2.265-1.676c3.273-1,6.794-.94,10.192-1a128.421,128.421,0,0,0,15.186-1.2,1.223,1.223,0,0,0,1.359-1.359c.5-6.682-1.982-13.2-4.53-19.4q-1.529-3.726-3.148-7.417a21.969,21.969,0,0,0-3.85-6.591,6.8,6.8,0,0,0-2.265-1.676,9.576,9.576,0,0,0-3.035-.566,21.515,21.515,0,0,0-4.972-.091,10.593,10.593,0,0,0-.476,2.571c.091,3.058,1.427,5.923,2.741,8.686C829.859,602.607,830.347,602.63,830.607,603.038Z" transform="translate(-38.715 -136.567)" fill="#be6f72"/><path d="M812.542,606.67A8.3,8.3,0,0,0,811.41,611a5.831,5.831,0,0,0,.283,1.767,5.73,5.73,0,0,0,3.612,3.4" transform="translate(-37.59 -134.47)" fill="none" stroke="#000" stroke-miterlimit="10" stroke-width="1" opacity="0.1"/><path d="M819.9,574.237a5.194,5.194,0,0,0-1.642.26c-1.484-2.265-4.972-3.828-9.059-3.828-5.413,0-9.8,2.8-9.8,6.24s4.383,6.228,9.8,6.228a13.78,13.78,0,0,0,5.877-1.246,5.334,5.334,0,1,0,4.8-7.655Z" transform="translate(-39.261 -139.237)" fill="#3f3d56"/><path d="M820.341,583.079a5.323,5.323,0,0,1-4.8-3.025,13.779,13.779,0,0,1-5.877,1.247c-5.4,0-9.784-2.786-9.784-6.228a3.7,3.7,0,0,1,0-.623,4.225,4.225,0,0,0-.5,1.959c0,3.4,4.383,6.228,9.8,6.228a13.782,13.782,0,0,0,5.877-1.246,5.334,5.334,0,0,0,10.045-1.325A5.311,5.311,0,0,1,820.341,583.079Z" transform="translate(-39.259 -138.737)" opacity="0.1"/><path d="M798.911,575.533a15.118,15.118,0,0,1,16.986-8.1,16.013,16.013,0,0,1,24.37,12.3V578.4a16.013,16.013,0,0,0-24.426-13.589,15.118,15.118,0,0,0-16.986,8.1,18.436,18.436,0,0,0-5.764,13.771v1.336A18.119,18.119,0,0,1,798.911,575.533Z" transform="translate(-40.487 -140.33)" opacity="0.1"/><path d="M547.756,591.629a11.109,11.109,0,0,0-4.428-8.969,13.023,13.023,0,0,0-10.883-12.774,13,13,0,0,0-8.663-9.682h0a11.064,11.064,0,0,0-1.608-.374h-1.914a12.751,12.751,0,0,0-12.321,10.894c-3.975-.917-7.61.272-8.278,2.786a3.4,3.4,0,0,0,.113,2.016c.68,1.948,2.888,3.816,5.843,4.734l.385.113.578.147h.124a10.013,10.013,0,0,0-.951,4.292,9.9,9.9,0,0,0,5.334,8.833l-.26.159a3.533,3.533,0,0,0-.861,1.2,17.957,17.957,0,0,0-1.665,4.009c-.283,1.2-.329,2.446-.68,3.635-.657,2.185-2.333,4.031-2.525,6.307-.091,1.019.079,2.265-.646,2.922a3.517,3.517,0,0,1-.578.408,4.679,4.679,0,0,0-1.257,1.325,4.4,4.4,0,0,1-.883,1.268c-.657.487-1.733.442-2.05,1.2s.51,1.653.317,2.48-.895.985-1.4,1.45a5.04,5.04,0,0,0-1.212,2.265,7.428,7.428,0,0,1-6.115-1.562,11.426,11.426,0,0,1,.634,2.265,9.921,9.921,0,0,0-3.3-1.653,10.4,10.4,0,0,1-3.511-2.6l1.88-.261-8.3-12.672-2.457-.509,2.2,4.224a1.347,1.347,0,0,0-.747.895,3.835,3.835,0,0,0-.079,1.438,25.743,25.743,0,0,0,.566,3.4l.634,2.967c.057.272.124.555.2.827a7.808,7.808,0,0,0-2.457.272,21.387,21.387,0,0,0-5.107-1.212,2.83,2.83,0,0,0-1.133,0,2.93,2.93,0,0,0-1.076.872,34.827,34.827,0,0,0-3.794,5.345c-4.53,7.768-10.43,14.552-16.013,21.573-3.85,1.563-7.734,3.046-11.619,4.53l-8.357,3.193a12.67,12.67,0,0,1-5.187,1.132c-.793,0-1.778-.17-2.265.51a4.768,4.768,0,0,0-.51,1.133l-.861.09h0a9.9,9.9,0,0,0-2-3.692,1.268,1.268,0,0,0-.94.725c-.2.374-.328.781-.566,1.132-.442.657-1.223.974-1.778,1.529s-.906,1.416-1.518,1.982a6,6,0,0,1-2.842,1.133,17.93,17.93,0,0,0-4.45,1.687,7.18,7.18,0,0,1-1.642.759,6.162,6.162,0,0,1-1.936.068l-4.416-.328a3.486,3.486,0,0,0-1.189.057,2.265,2.265,0,0,0-1.4,2.265,3.568,3.568,0,0,0,1.4,2.435,8.992,8.992,0,0,0,2.514,1.3A73.782,73.782,0,0,0,411.626,671v.895a20.1,20.1,0,0,0,9.059,2.152,1.405,1.405,0,0,0,.68-.124,1.5,1.5,0,0,0,.566-.883,36.434,36.434,0,0,0,1.766-8.674h0a4.53,4.53,0,0,0,1.6-.408c1.517-.419,3.035.623,4.609.793,1.936.215,3.726-.917,5.56-1.608l.793-.261a8.7,8.7,0,0,1-1.835,1.755c-.759.543-1.608.951-2.344,1.517a16.157,16.157,0,0,1-1.993,1.54,12.526,12.526,0,0,1-1.529.589,10.086,10.086,0,0,0-2.186,1.132,4.426,4.426,0,0,0-1.483,1.45,2.175,2.175,0,0,0-.125,2.038,2.152,2.152,0,0,0,1.461,1.019,5.983,5.983,0,0,0,1.8,0c2.4-.181,4.79-.4,7.18-.611a19.127,19.127,0,0,0,3-.43c.521-.125,1.042-.294,1.563-.442a13.941,13.941,0,0,1,2.729-.408,2.266,2.266,0,0,1,.793.079c.555.181.951.747,1.518.861a2.267,2.267,0,0,0,1.132-.147,25.246,25.246,0,0,1,5.311-.566,2.192,2.192,0,0,0,2.061-.917c.362-.725-.294-1.891-.589-2.854a8.731,8.731,0,0,1-.249-1.88,11.767,11.767,0,0,0-1.314-4.462,11.652,11.652,0,0,1-.985-2.038,51.5,51.5,0,0,0,9.773-4.96,17.475,17.475,0,0,1,5.572-2.684,15.154,15.154,0,0,1,7,.815,159.219,159.219,0,0,1,16.047,5.594c2.5,1.031,4.994,2.118,7.576,2.9a11.82,11.82,0,0,0,2.7,2.616,12.459,12.459,0,0,0,5.832,1.6,76.481,76.481,0,0,0,8.21.306,13.85,13.85,0,0,0,6.115-1.132,6.278,6.278,0,0,0,1.28-.849,5.073,5.073,0,0,0,4.031-1.483,9.772,9.772,0,0,0,3.069-4.847c.668-2.582.159-5.662,1.744-7.723.419-.566.974-1.019,1.393-1.585a4.462,4.462,0,0,0,.725-2.616.529.529,0,0,1,.068-.1,9.585,9.585,0,0,0,.68-2.6,14.918,14.918,0,0,1,.736-2.061,63.584,63.584,0,0,0,2.106-6.1,35.624,35.624,0,0,0,.974-4.19c.17-1.132.272-2.265.362-3.4a21.1,21.1,0,0,1,1.031-5.243,42.671,42.671,0,0,0,2.378-12.547v-.249a8.414,8.414,0,0,0,7.451-8.561,8.934,8.934,0,0,0-.781-3.658,11.323,11.323,0,0,0,1.518-5.708Zm-40.518,49.227c.125.442.272.872.419,1.3-.668-.646-1.314-1.314-1.982-1.97.26.091.532.17.781.272a4.209,4.209,0,0,1,.747.4Zm-3.2-2.174c-3.918-3.4-8.448-6.036-12.457-9.331,2.186,1.076,4.315,2.333,6.421,3.533q3.748,2.14,7.6,4.111a6.221,6.221,0,0,1-1.6,1.687Zm1.665-8.561.193-.193v1.348l-1.053-.363a9.4,9.4,0,0,0,.827-.793Zm-34.46,9.173a32.42,32.42,0,0,0,4.167-5.945c1.552,2.706,4.077,4.666,6.217,6.942C478.168,639.848,474.7,639.474,471.237,639.293Z" transform="translate(-72.303 -140.673)" fill="url(#b)"/><path d="M415.35,438.25l2.469.5,8.414,12.445-3.7.5Z" transform="translate(-12.335 27.393)" fill="#2f2e41"/><path d="M414.49,645.475a48.451,48.451,0,0,0,2.469,6.421,61.143,61.143,0,0,0,8.21-2.344,25.853,25.853,0,0,0-1.71-2.265,8.447,8.447,0,0,0-2.322-1.778,6.388,6.388,0,0,0-2.82,0C417.049,645.475,415.77,645.5,414.49,645.475Z" transform="translate(-68.405 -129.347)" fill="#fbbebe"/><path d="M423.623,649.21a5.119,5.119,0,0,1-2.808-3.193,10.281,10.281,0,0,0-2.14-3.816,1.223,1.223,0,0,0-.951.713c-.2.362-.328.77-.555,1.132-.453.646-1.246.963-1.812,1.506s-.906,1.393-1.517,1.948a6.024,6.024,0,0,1-2.865,1.132,18.591,18.591,0,0,0-4.53,1.664,7.816,7.816,0,0,1-1.665.748,6.589,6.589,0,0,1-1.948,0l-4.462-.317a3.484,3.484,0,0,0-1.132,0,2.163,2.163,0,0,0-1.416,2.265,3.4,3.4,0,0,0,1.416,2.4,9.4,9.4,0,0,0,2.537,1.291,74.619,74.619,0,0,0,11.958,3.4v.883a20.7,20.7,0,0,0,9.116,2.117,1.539,1.539,0,0,0,.68-.113,1.5,1.5,0,0,0,.566-.883,35.332,35.332,0,0,0,1.869-9.694,7.724,7.724,0,0,0-.193-2.5c-.249-.8.589-.464-.181-.781" transform="translate(-70.119 -129.765)" fill="#2f2e41"/><path d="M506.2,633.953c-13.227.793-26.3-3.08-39.544-3.488a19.3,19.3,0,0,0-4.915.306,24.762,24.762,0,0,0-4.869,1.891c-7.1,3.307-14.45,6.047-21.788,8.776l-8.437,3.137a12.772,12.772,0,0,1-5.221,1.133c-.8,0-1.789-.17-2.265.5-1.37,2.038-.725,5.017.181,7.3.294.736.793,1.54,1.585,1.619a4.606,4.606,0,0,0,1.608-.408c1.529-.408,3.058.623,4.643.793,1.948.2,3.76-.906,5.606-1.585,3.058-1.132,6.387-1.132,9.6-1.631,5.379-.895,10.373-3.4,15.039-6.24a17.553,17.553,0,0,1,5.606-2.65,15.517,15.517,0,0,1,7.055.8,161.944,161.944,0,0,1,16.182,5.5,75.425,75.425,0,0,0,8.448,3.091,30.575,30.575,0,0,0,18.946-1.133c2.118-.838,4.416-2.265,4.53-4.6.079-1.3-.94-2.446-1.608-3.567-.43-.713-.872-1.427-1.336-2.118C512.984,638.109,510.221,633.715,506.2,633.953Z" transform="translate(-69.69 -131.324)" fill="#2f2e41"/><path d="M506.2,633.953c-13.227.793-26.3-3.08-39.544-3.488a19.3,19.3,0,0,0-4.915.306,24.762,24.762,0,0,0-4.869,1.891c-7.1,3.307-14.45,6.047-21.788,8.776l-8.437,3.137a12.772,12.772,0,0,1-5.221,1.133c-.8,0-1.789-.17-2.265.5-1.37,2.038-.725,5.017.181,7.3.294.736.793,1.54,1.585,1.619a4.606,4.606,0,0,0,1.608-.408c1.529-.408,3.058.623,4.643.793,1.948.2,3.76-.906,5.606-1.585,3.058-1.132,6.387-1.132,9.6-1.631,5.379-.895,10.373-3.4,15.039-6.24a17.553,17.553,0,0,1,5.606-2.65,15.517,15.517,0,0,1,7.055.8,161.944,161.944,0,0,1,16.182,5.5,75.425,75.425,0,0,0,8.448,3.091,30.575,30.575,0,0,0,18.946-1.133c2.118-.838,4.416-2.265,4.53-4.6.079-1.3-.94-2.446-1.608-3.567-.43-.713-.872-1.427-1.336-2.118C512.984,638.109,510.221,633.715,506.2,633.953Z" transform="translate(-69.69 -131.324)" opacity="0.1"/><path d="M436.92,646.644q3.1,1.053,6.262,1.948c1.132-1.936,3.4-3.284,3.884-5.5a.521.521,0,0,0,0-.294.543.543,0,0,0-.238-.215,11.868,11.868,0,0,0-4.915-1.438c-1.359-.079-1.982,1.336-2.593,2.333C439.083,643.915,437.475,646.859,436.92,646.644Z" transform="translate(-66.667 -129.905)" fill="#fbbebe"/><path d="M441.872,645.147a4.529,4.529,0,0,1-3.046-2c-.283-.51-.6-1.2-1.189-1.132s-.781.68-.906,1.211a33.966,33.966,0,0,1-1.71,5.878,11.028,11.028,0,0,1-3.658,4.813c-.77.532-1.619.929-2.378,1.495a16.321,16.321,0,0,1-2,1.517,11.922,11.922,0,0,1-1.54.566,10.654,10.654,0,0,0-2.2,1.133,4.356,4.356,0,0,0-1.506,1.438,2.072,2.072,0,0,0-.113,2,2.14,2.14,0,0,0,1.461,1,6.151,6.151,0,0,0,1.823,0c2.412-.17,4.824-.385,7.236-.6a20.891,20.891,0,0,0,3.024-.419l1.574-.43a12.535,12.535,0,0,1,2.752-.408,2.144,2.144,0,0,1,.8.079c.555.181.951.736,1.529.849a2.557,2.557,0,0,0,1.132-.147,25.006,25.006,0,0,1,5.356-.555,2.261,2.261,0,0,0,2.084-.906c.453-.883-.294-1.869-.6-2.82a9.059,9.059,0,0,1-.249-1.846,11.254,11.254,0,0,0-1.325-4.394c-.611-1.132-1.449-2.378-1.019-3.578a3.4,3.4,0,0,0,.407-1.235C447.443,644.706,442.982,645.4,441.872,645.147Z" transform="translate(-68.182 -129.79)" fill="#2f2e41"/><path d="M479.723,616.16a10.328,10.328,0,0,1-5.277-5.232c-.215-.5-.4-1.03-.612-1.529a11.62,11.62,0,0,0-3.148-4.382,1.551,1.551,0,0,0-1.132-.487,1.235,1.235,0,0,0-.849.917,3.5,3.5,0,0,0-.09,1.416,25.226,25.226,0,0,0,.566,3.307l.646,2.922a6.407,6.407,0,0,0,.4,1.3,4.527,4.527,0,0,0,1.076,1.28c.589.544,1.189,1.064,1.789,1.585a6.152,6.152,0,0,0,1.132.781,6.583,6.583,0,0,0,2,.589,17.055,17.055,0,0,1,7.519,2.9v-2.174a2.876,2.876,0,0,0-.566-1.574A10.045,10.045,0,0,0,479.723,616.16Z" transform="translate(-64.321 -134.753)" fill="#fbbebe"/><path d="M479.723,616.16a10.328,10.328,0,0,1-5.277-5.232c-.215-.5-.4-1.03-.612-1.529a11.62,11.62,0,0,0-3.148-4.382,1.551,1.551,0,0,0-1.132-.487,1.235,1.235,0,0,0-.849.917,3.5,3.5,0,0,0-.09,1.416,25.226,25.226,0,0,0,.566,3.307l.646,2.922a6.407,6.407,0,0,0,.4,1.3,4.527,4.527,0,0,0,1.076,1.28c.589.544,1.189,1.064,1.789,1.585a6.152,6.152,0,0,0,1.132.781,6.583,6.583,0,0,0,2,.589,17.055,17.055,0,0,1,7.519,2.9v-2.174a2.876,2.876,0,0,0-.566-1.574A10.045,10.045,0,0,0,479.723,616.16Z" transform="translate(-64.321 -134.753)" opacity="0.1"/><ellipse cx="3.216" cy="3.239" rx="3.216" ry="3.239" transform="translate(437.58 452.575)" fill="#2f2e41"/><path d="M503.042,590.491a3.476,3.476,0,0,0-2.537.363,3.523,3.523,0,0,0-.872,1.189,17.27,17.27,0,0,0-1.676,3.941c-.283,1.132-.328,2.412-.691,3.578-.657,2.152-2.344,3.975-2.537,6.217-.091,1.008.079,2.186-.657,2.865a4.15,4.15,0,0,1-.578.419,4.352,4.352,0,0,0-1.268,1.3,4.265,4.265,0,0,1-.895,1.234c-.657.487-1.744.442-2.061,1.132s.51,1.631.317,2.446-.906.974-1.416,1.427a4.948,4.948,0,0,0-1.223,2.265,7.554,7.554,0,0,1-6.16-1.529,19.614,19.614,0,0,1,.963,7.044,2.877,2.877,0,0,1-.566,2.174,39.235,39.235,0,0,1,7.553,1.314,5.21,5.21,0,0,0,3.3,0,5.5,5.5,0,0,0,1.517-1.2c1.359-1.382,2.786-2.888,3.114-4.8a28.22,28.22,0,0,0,.057-3.25,18.323,18.323,0,0,1,.827-3.952,47.028,47.028,0,0,0,1.438-8.131c.147-1.7,1.619-3.057,2.389-4.53,1.45-2.865,2.944-5.843,3.046-9.059C504.469,591.907,504.107,590.6,503.042,590.491Z" transform="translate(-63.549 -136.625)" fill="#2f2e41"/><path d="M503.042,590.491a3.476,3.476,0,0,0-2.537.363,3.523,3.523,0,0,0-.872,1.189,17.27,17.27,0,0,0-1.676,3.941c-.283,1.132-.328,2.412-.691,3.578-.657,2.152-2.344,3.975-2.537,6.217-.091,1.008.079,2.186-.657,2.865a4.15,4.15,0,0,1-.578.419,4.352,4.352,0,0,0-1.268,1.3,4.265,4.265,0,0,1-.895,1.234c-.657.487-1.744.442-2.061,1.132s.51,1.631.317,2.446-.906.974-1.416,1.427a4.948,4.948,0,0,0-1.223,2.265,7.554,7.554,0,0,1-6.16-1.529,19.614,19.614,0,0,1,.963,7.044,2.877,2.877,0,0,1-.566,2.174,39.235,39.235,0,0,1,7.553,1.314,5.21,5.21,0,0,0,3.3,0,5.5,5.5,0,0,0,1.517-1.2c1.359-1.382,2.786-2.888,3.114-4.8a28.22,28.22,0,0,0,.057-3.25,18.323,18.323,0,0,1,.827-3.952,47.028,47.028,0,0,0,1.438-8.131c.147-1.7,1.619-3.057,2.389-4.53,1.45-2.865,2.944-5.843,3.046-9.059C504.469,591.907,504.107,590.6,503.042,590.491Z" transform="translate(-63.549 -136.625)" opacity="0.1"/><path d="M505.5,639.186c-2.752-1.314-4.768-3.748-7-5.843-4.247-4-9.445-6.794-13.918-10.565-2.967-2.48-5.662-5.368-8.867-7.451a22.159,22.159,0,0,0-9.5-3.318,2.53,2.53,0,0,0-1.133,0,2.605,2.605,0,0,0-1.076.849,34.234,34.234,0,0,0-3.839,5.266c-5.662,9.626-13.714,17.711-20.384,26.657a1.7,1.7,0,0,0-.328.634,1.574,1.574,0,0,0,.249.985l1.359,2.65c.759,1.495,1.982,3.227,3.612,2.933a3.952,3.952,0,0,0,1.891-1.212l6.092-5.832,6.387-6.1c3.737-3.567,7.542-7.225,9.988-11.8,1.9,3.307,5.288,5.47,7.6,8.493.883,1.132,1.608,2.412,2.4,3.635,1.257,1.948,2.7,3.782,4.122,5.662l7.327,9.342a14.017,14.017,0,0,0,3.4,3.4,12.967,12.967,0,0,0,5.877,1.574,77.685,77.685,0,0,0,8.278.295,14.272,14.272,0,0,0,6.172-1.133,5.594,5.594,0,0,0,3.341-4.971,7.291,7.291,0,0,0-1.053-3.091C513.85,645.516,510.43,641.53,505.5,639.186Z" transform="translate(-67.725 -133.772)" fill="#2f2e41"/><ellipse cx="2.48" cy="2.491" rx="2.48" ry="2.491" transform="translate(440.195 455.565)" fill="#e8e8f0"/><path d="M503.867,593.44a4.767,4.767,0,0,1,.272,3.578,14.519,14.519,0,0,1-1.6,3.3,15.684,15.684,0,0,1-2.072,2.944c3.828.181,7.531-1.314,10.894-3.126,2.718-1.461,5.424-3.261,6.874-5.991a3.17,3.17,0,0,1-2.537-.476,9.065,9.065,0,0,1-1.936-1.8l-1.914-2.152a8.608,8.608,0,0,1-1.132-1.552,4.281,4.281,0,0,1-.51-2.5,14.576,14.576,0,0,1-2.537,2.106c-1.37.895-2.876,1.54-4.258,2.423-.476.317-1.563.815-1.28,1.45S503.482,592.76,503.867,593.44Z" transform="translate(-61.923 -137.252)" fill="#fbbebe"/><path d="M503.867,593.44a4.767,4.767,0,0,1,.272,3.578,14.519,14.519,0,0,1-1.6,3.3,15.684,15.684,0,0,1-2.072,2.944c3.828.181,7.531-1.314,10.894-3.126,2.718-1.461,5.424-3.261,6.874-5.991a3.17,3.17,0,0,1-2.537-.476,9.065,9.065,0,0,1-1.936-1.8l-1.914-2.152a8.608,8.608,0,0,1-1.132-1.552,4.281,4.281,0,0,1-.51-2.5,14.576,14.576,0,0,1-2.537,2.106c-1.37.895-2.876,1.54-4.258,2.423-.476.317-1.563.815-1.28,1.45S503.482,592.76,503.867,593.44Z" transform="translate(-61.923 -137.252)" opacity="0.1"/><path d="M505.273,592.907a3.228,3.228,0,0,0,0,3.737c.113.136.521.985.691,1a.623.623,0,0,0,.43-.226,28.4,28.4,0,0,0,2.424-2.888,5.39,5.39,0,0,1,3.08-2.016,6.659,6.659,0,0,1,4.247,1.325,4.029,4.029,0,0,1,1.461,1.132,3.955,3.955,0,0,1,.476,1.619,78.051,78.051,0,0,1,.43,10.294,40.564,40.564,0,0,1-.487,7.417c-.249,1.257-.611,2.491-.781,3.771a24.077,24.077,0,0,0-.159,3.4V626.2a12.45,12.45,0,0,0,.181,2.593c.227,1.03.714,1.993,1.042,3a19.629,19.629,0,0,1,.691,3.544l.645,4.892c.2,1.54.362,3.227-.577,4.53-.419.555-.974,1.008-1.4,1.563-1.6,2.084-1.132,5.062-1.755,7.61a9.489,9.489,0,0,1-3.1,4.756,5.13,5.13,0,0,1-4.088,1.461c-1.993-.374-3.182-2.446-3.726-4.405s-.736-4.088-1.914-5.742a15.231,15.231,0,0,0-3.782-3.16,6.533,6.533,0,0,1-2.956-3.839c-.125-.713,0-1.45-.125-2.174a5.13,5.13,0,0,0-3.159-4.156c-1.019-.4-2.265-.544-2.854-1.472a6.874,6.874,0,0,0,2.978-4,20.528,20.528,0,0,0,.725-5.051l.34-5.662c.159-2.548.227-5.062,1.348-7.35.5-1.019,1.132-1.982,1.642-2.989a32.448,32.448,0,0,0,1.755-4.383c.815-2.333,1.631-4.666,2.356-7.021a13.225,13.225,0,0,1,1.291-3.273C503.246,594.413,504.129,593.133,505.273,592.907Z" transform="translate(-62.95 -136.346)" fill="#e8e8f0"/><path d="M492.379,629.99h1.506l.317-2.265a4.72,4.72,0,0,1,.317-1.325,7.928,7.928,0,0,1,.872-1.268c1.472-2.1,1.37-4.87,1.733-7.417a37.742,37.742,0,0,1,3.307-9.694l2.922-6.512a9,9,0,0,0,.634-1.665,9.982,9.982,0,0,0,.181-1.925c0-1.008.317-4.677.351-5.662,0-.374-.827-.17-1-.5-.362-.725-.861,1.234-1.552,1.665a3.805,3.805,0,0,0-1.348,1.97c-.634,1.631-1.019,3.4-1.608,5.017a10.245,10.245,0,0,1-2.729,4.439c-.6.521-1.291.94-1.857,1.506-1.812,1.789-1.993,4.632-2.05,7.191C492.334,615.109,492.039,629.99,492.379,629.99Z" transform="translate(-62.448 -136.466)" fill="#2f2e41"/><path d="M513.107,590.488a5.141,5.141,0,0,0-2.684,3.68,18.612,18.612,0,0,1-1.359,4.53c-1.834,3.193-6.511,4.122-7.814,7.576a13.921,13.921,0,0,0-.521,3.567c-.227,2.48-1.042,4.87-1.291,7.338a32.7,32.7,0,0,0,.136,5.764l1.642,19.5a26.048,26.048,0,0,1-.487,8.584,8.267,8.267,0,0,0,4.915-.815c1.529-.7,2.933-1.665,4.416-2.48,2.537-1.4,5.345-2.389,7.576-4.258a4.633,4.633,0,0,0,1.019-1.132,9.8,9.8,0,0,0,.679-2.559,13.8,13.8,0,0,1,.736-2.016,59.371,59.371,0,0,0,2.129-6.025,34.6,34.6,0,0,0,.974-4.122c.181-1.132.283-2.265.374-3.4a19.941,19.941,0,0,1,1.042-5.152,41.5,41.5,0,0,0,2.389-12.366,6.461,6.461,0,0,0-.125-1.812,9.691,9.691,0,0,0-1-2.073c-.679-1.28-1.132-2.684-1.721-3.986a19.6,19.6,0,0,0-6.693-7.032C516.13,590.907,514.59,589.956,513.107,590.488Z" transform="translate(-62.21 -136.633)" fill="#2f2e41"/><path d="M483.364,619.339a11.81,11.81,0,0,1-3.114-2.367c-.408-.475-.747-1.008-1.132-1.483a7.714,7.714,0,0,0-3.918-2.265,19.132,19.132,0,0,0-4.53-.442,8.219,8.219,0,0,0-3.024.362,3.081,3.081,0,0,0-2,2.152,3.567,3.567,0,0,0,1.529,3.171,7.2,7.2,0,0,0,3.046,1.472,24.292,24.292,0,0,0,2.752.328c5.413.566,10.249,3.511,14.993,6.195q6.251,3.556,12.751,6.613a26.5,26.5,0,0,0,.215-3.907c0-.974-.079-2.469-1-3.046a20.02,20.02,0,0,0-4.054-1.212,63.814,63.814,0,0,1-8.165-3.307A40.673,40.673,0,0,1,483.364,619.339Z" transform="translate(-64.931 -133.663)" fill="#fbbebe"/><ellipse cx="9.648" cy="9.705" rx="9.648" ry="9.705" transform="translate(431.205 435.668)" fill="#fbbebe"/><path d="M516.712,600.324a15.471,15.471,0,0,0-1.869,3.5c-1.132,2.446-3.058,4.53-4,7.123s-.951,5.923-2.888,8.04a2.821,2.821,0,0,0-.849,1.223,5.862,5.862,0,0,1-.091.883c-.283.77-1.54.8-1.778,1.6-.068.227,0,.476-.113.7-.193.509-.872.589-1.314.895-.94.634-.747,2.106-1.416,3.024a2.548,2.548,0,0,1-2.412.849,8.49,8.49,0,0,1-2.5-.94,2.416,2.416,0,0,0-.906-.283,1.867,1.867,0,0,0-1.042.362,6.421,6.421,0,0,0-2.6,5.492,17.944,17.944,0,0,0,1.495,6.149,2.47,2.47,0,0,0,.487.917,2.163,2.163,0,0,0,2.4.181,11.313,11.313,0,0,1,2.344-1.053c1.495-.272,2.956.759,4.473.668a6.219,6.219,0,0,0,3.012-1.325,16.648,16.648,0,0,0,4.054-3.4c.657-.872,1.132-1.857,1.721-2.786a35.727,35.727,0,0,1,2.435-3.25l5.571-6.795a15.637,15.637,0,0,0,1.495-2.061,14.532,14.532,0,0,0,1.132-3.114,23.863,23.863,0,0,0,1.132-5.538,21.278,21.278,0,0,0-.408-4.643,16.422,16.422,0,0,0-1.132-4.428C521.933,599.758,518.988,597.674,516.712,600.324Z" transform="translate(-62.787 -135.473)" fill="#2f2e41"/><path d="M536.731,592.682a10.871,10.871,0,0,0-4.462-8.833A12.921,12.921,0,0,0,521.3,571.268a12.536,12.536,0,0,0-24.7.668c-4.009-.906-7.678.272-8.346,2.741s2.163,5.662,6.387,6.795a11.9,11.9,0,0,0,4.1.408,12.547,12.547,0,0,0,8.629,5.379,12.876,12.876,0,0,0,9.422,9.716,10.814,10.814,0,0,0,2.91,4.02v.94a8.165,8.165,0,1,0,16.33,0,8.721,8.721,0,0,0-.781-3.613A10.915,10.915,0,0,0,536.731,592.682Z" transform="translate(-63.496 -140.492)" fill="#f86d70"/><path d="M490.971,575.2c.668-2.469,4.337-3.646,8.346-2.74a12.752,12.752,0,0,1,12.457-10.735h.827a12.272,12.272,0,0,0-3.556-.532,12.751,12.751,0,0,0-12.457,10.735c-4.009-.906-7.678.272-8.346,2.74s2.163,5.662,6.387,6.795a12.446,12.446,0,0,0,2.423.419C493.009,580.668,490.3,577.724,490.971,575.2Z" transform="translate(-63.003 -140.493)" opacity="0.1"/><path d="M521.1,599.942a8.536,8.536,0,0,1,0-.929,10.576,10.576,0,0,1-2.91-4.02,12.842,12.842,0,0,1-9.422-9.728,12.513,12.513,0,0,1-8.64-5.368,10.87,10.87,0,0,1-2.412-.068,12.582,12.582,0,0,0,8.323,4.949,12.875,12.875,0,0,0,9.422,9.716,10.814,10.814,0,0,0,2.91,4.02v.94a8.312,8.312,0,0,0,8.12,8.448A8.448,8.448,0,0,1,521.1,599.942Z" transform="translate(-62.36 -138.024)" opacity="0.1"/><ellipse cx="1.483" cy="1.982" rx="1.483" ry="1.982" transform="translate(441.48 446.676) rotate(-37.22)" fill="#fbbebe"/></g></svg>