<svg xmlns="http://www.w3.org/2000/svg" width="951" height="753.415" viewBox="0 0 951 753.415"><g transform="translate(0 -2.604)"><path d="M647.242,173.015c-60.174-2.092-117.494-21.515-172.22-42.769S366.091,85.441,307.358,74.182c-37.776-7.243-80.982-8.266-111.413,11.985-29.3,19.525-38.762,53.136-43.848,84.357-3.831,23.486-6.081,48.2,4.416,70.188,7.28,15.267,20.213,28.1,29.148,42.769,31.119,50.877,9.13,113.617-24.592,163.294C145.263,470.084,126.9,492.333,114.7,517.12s-17.851,53.229-7.178,78.537c10.59,25.1,35.814,43.922,63.131,57.171,55.5,26.917,120.869,34.615,184.66,38.976,141.166,9.66,283.076,5.476,424.613,1.292,52.383-1.553,104.989-3.124,156.516-11.222,28.618-4.5,58.157-11.631,78.937-28.869,26.368-21.877,32.9-58.928,15.239-86.356-29.65-46.014-111.571-57.441-132.324-106.83-11.4-27.177.316-57.45,16.884-82.665,35.554-54.075,95.143-101.521,98.285-163.331,2.157-42.462-26.5-84.971-70.792-105.063-46.423-21.134-110.818-18.456-145.052,16.4C762.346,161.077,700.369,174.856,647.242,173.015Z" transform="translate(-89.515 -45.283)" fill="#7d70ba" opacity="0.4"/><path d="M409.02,669.961,90.781,668.408,59.16,594.241l111.813-8.117-19.488-81.317,221.153-28.665L160.867,402.524l18.707-4.444L520.1,453.633l-18.753,126.9-26.805,69.741Z" transform="translate(-4.155 -27.996)" fill="#26a682"/><path d="M187,698.817s19.525-3.124,31.24,10.674c0,0-8.591,6.769-27.075-2.6Z" transform="translate(-95.493 -89.468)" fill="#26a682"/><path d="M184.194,698.51s-12.459,15.332-6.322,32.4c0,0,10.153-4.063,11.259-24.76Z" transform="translate(-94.732 -89.468)" fill="#26a682"/><path d="M172.76,671.026s7.81-14.328,39.05,5.727c0,0-4.165,9.632-17.963,8.851S176.4,678.575,172.76,671.026Z" transform="translate(-94.493 -87.189)" fill="#26a682"/><path d="M169.247,670.289s-16.206-1.86-17.777,35.238c0,0,10.274,2.129,17.572-9.6S173.347,677.606,169.247,670.289Z" transform="translate(-92.997 -87.484)" fill="#26a682"/><path d="M160.44,637.422s9.112-25.252,42.174-7.289c0,0-7.55,23.17-38.79,15.88Z" transform="translate(-93.627 -84.212)" fill="#26a682"/><path d="M149.52,596.96s17.182-25.513,47.641-1.86c0,0-10.674,23.951-45.038,10.934Z" transform="translate(-92.86 -81.498)" fill="#26a682"/><path d="M145.6,558.433s20.046-23.439,50.207,0c0,0-19,20.566-50.207,5.988Z" transform="translate(-92.585 -78.897)" fill="#26a682"/><path d="M142.24,520.838s20.306-24.471,49.2-1.3c0,0-22.909,21.608-49.2,7.029Z" transform="translate(-92.349 -76.196)" fill="#26a682"/><path d="M144.2,487.042s21.385-31.5,48.422-10.153c0,0-22.909,27.075-48.422,16.141Z" transform="translate(-92.487 -73.38)" fill="#26a682"/><path d="M149.52,448.217s22.649-31.24,48.943-7.289c0,0-26.814,27.075-48.943,13.017Z" transform="translate(-92.86 -70.741)" fill="#26a682"/><path d="M157.551,413.118s26.814-29.362,50.207-17.665c0,0-27.939,31.184-51.379,25.457Z" transform="translate(-93.342 -67.988)" fill="#26a682"/><path d="M167.554,379.685S198.5,343.722,216.5,355.734c0,0-22.8,27.893-51.137,30.682Z" transform="translate(-93.973 -65.219)" fill="#26a682"/><path d="M182,341.675s27.084-29.362,46.869-22.073c0,0-23.17,30.459-50.5,31.24Z" transform="translate(-94.886 -62.772)" fill="#26a682"/><path d="M195.342,305.856s29.938-28.116,42.955-23.17c0,0-21.608,31.24-44.257,29.418Z" transform="translate(-95.987 -60.22)" fill="#26a682"/><path d="M208.32,272.258s25.773-33.592,39.84-30.989c0,0-15.629,29.948-39.84,34.4Z" transform="translate(-96.99 -57.342)" fill="#26a682"/><path d="M222.229,228.119s22.779-25.745,35.089-25.689c0,0-17.982,34.4-36.028,34.085Z" transform="translate(-97.901 -54.624)" fill="#26a682"/><path d="M230.369,196.349l22.007-53.629s1.1,48.478-24.806,63.577Z" transform="translate(-98.342 -50.43)" fill="#26a682"/><path d="M240.179,133.131s3.645-44.787,1.3-48.431c0,0,15.732,37.237-1.45,68.217Z" transform="translate(-99.217 -46.355)" fill="#26a682"/><path d="M156.68,637.6s-22.816-14.142-37.59,20.455c0,0,20.306,13.482,40.277-11.631Z" transform="translate(-90.723 -84.989)" fill="#26a682"/><path d="M145.59,596.145S117.6,583.379,104.03,619.5c0,0,21.617,14.876,44.108-14.225Z" transform="translate(-89.665 -82.124)" fill="#26a682"/><path d="M140.407,560.743s-20.046-23.439-50.207,0c0,0,19,20.566,50.207,5.988Z" transform="translate(-88.694 -79.059)" fill="#26a682"/><path d="M137.783,520.838s-20.306-24.471-49.2-1.3c0,0,22.909,21.608,49.2,7.029Z" transform="translate(-88.58 -76.196)" fill="#26a682"/><path d="M140.785,487.524S126.541,452.24,95.58,467.414c0,0,16.736,31.286,43.941,25.968Z" transform="translate(-89.072 -72.97)" fill="#26a682"/><path d="M148.008,447.473s-14.16-35.9-45.558-19.255c0,0,19.227,32.9,44.164,24.8Z" transform="translate(-89.554 -70.174)" fill="#26a682"/><path d="M158.5,411.611s-5.579-39.357-31.612-42.881c0,0,5.523,41.5,28.107,49.975Z" transform="translate(-91.271 -66.305)" fill="#26a682"/><path d="M166.64,378.053s-2.176-47.418-23.7-49.073c0,0,.725,35.991,21.273,55.786Z" transform="translate(-92.398 -63.513)" fill="#26a682"/><path d="M182.633,338.657s-6.415-39.431-26.963-44.247c0,0,2.548,38.185,24.927,53.926Z" transform="translate(-93.292 -61.085)" fill="#26a682"/><path d="M196.961,304.441s-.214-41.077-12.766-47.111c0,0-7.782,37.19,9.13,52.355Z" transform="translate(-95.17 -58.48)" fill="#26a682"/><path d="M208.2,270.465s-1.757-42.295-14.755-48.255c0,0-4.444,33.471,12.812,51.025Z" transform="translate(-95.909 -56.013)" fill="#26a682"/><path d="M223.314,230.482s-.074-34.4-9.353-42.472c0,0-9.223,37.683,4.509,49.389Z" transform="translate(-97.174 -53.611)" fill="#26a682"/><path d="M228.467,194.255,219.439,137s-12.264,46.916,9.456,67.594Z" transform="translate(-97.529 -50.028)" fill="#26a682"/><path d="M229.585,134.139s-23.17-38.492-22.7-42.769c0,0,2.464,40.342,31.612,60.435Z" transform="translate(-96.889 -46.823)" fill="#26a682"/><path d="M231.821,120.676s-21.868-54.67-31.761-59.1c0,0,31.24,15.88,33.583,57.534Z" transform="translate(-96.41 -44.731)" fill="#26a682"/><path d="M221.057,231.148l-1.5-.456c18.456-60.184,23.058-98.555,12.97-108.178l1.069-1.134C244.3,131.533,239.959,169.486,221.057,231.148Z" transform="translate(-97.78 -48.931)" fill="#444053"/><path d="M166.343,380.023l-2.213-.79c1.962-5.513,4.072-11.111,6.285-16.624C189.68,314.6,206.081,269.929,216.6,235.64l1.925-.93c-10.534,34.355-26.647,80.731-45.93,128.809C170.387,368.931,168.286,374.5,166.343,380.023Z" transform="translate(-93.886 -56.891)" fill="#444053"/><path d="M211.2,721.861c-.3-.325-30.208-34.011-51.063-91.516a338.6,338.6,0,0,1-20.148-104.859c-1.432-44.75,7.959-94.715,24.044-140.106l1.748,2.046C129.669,489.3,144.015,576.6,163.047,629.164c20.631,56.985,50.207,90.3,50.5,90.633Z" transform="translate(-92.181 -67.474)" fill="#444053"/><path d="M704.487,670.36s-21.078,25.727-4.342,64.619L531.858,807.965l-16.15,3.384-7.438-32.542,4.974-41.068V715.3Z" transform="translate(-118.058 -87.49)" fill="#d5d6db"/><path d="M59.16,605.852,292.084,563.39l308.635,49.166-191.7,69.016Z" transform="translate(-4.155 -39.607)" fill="#26a682"/><path d="M59.16,605.852,292.084,563.39l308.635,49.166-191.7,69.016Z" transform="translate(-4.155 -39.607)" fill="#26a682"/><path d="M147.078,652.47s-21.784,41.272,3.319,79.392L495.8,806.708s-21.44-32.876,1.106-78.509Z" transform="translate(-92.073 -86.234)" fill="#26a682"/><path d="M147.078,652.47s-21.784,41.272,3.319,79.392L495.8,806.708s-21.44-32.876,1.106-78.509Z" transform="translate(-92.073 -86.234)" opacity="0.1"/><path d="M158.392,667.86s-12.45,30.2,0,49.742" transform="translate(-93.095 -87.315)" opacity="0.1"/><path d="M496.717,812.144,689.549,729.86s10.785,2.324,3.812,10.227-192.926,79.96-192.926,79.96L151.31,737.3Z" transform="translate(-92.986 -91.669)" fill="#26a682"/><path d="M496.717,812.144,689.549,729.86s10.785,2.324,3.812,10.227-192.926,79.96-192.926,79.96L151.31,737.3Z" transform="translate(-92.986 -91.669)" opacity="0.1"/><path d="M505.186,742.86s-18.6,22.314,0,55.786" transform="translate(-117.261 -92.583)" opacity="0.1"/><rect width="87.928" height="0.93" transform="translate(394.545 677.726) rotate(-18.45)" opacity="0.1"/><rect width="107.137" height="0.93" transform="translate(394.514 685.211) rotate(-20.82)" opacity="0.1"/><rect width="124.179" height="0.93" transform="translate(395.073 694.035) rotate(-22.26)" opacity="0.1"/><rect width="142.942" height="0.93" transform="translate(396.414 701.815) rotate(-24.31)" opacity="0.1"/><rect width="156.34" height="0.93" transform="matrix(0.916, -0.401, 0.401, 0.916, 397.447, 705.602)" opacity="0.1"/><rect width="187.087" height="0.93" transform="translate(399.61 711.961) rotate(-23.36)" opacity="0.1"/><path d="M152.23,611.341l163.638-34.4L415.557,596l-134.09,43.234Z" transform="translate(-10.692 -40.558)" fill="#fff" opacity="0.3"/><path d="M715.726,659.69s8.461,3.412,3.5,8.684S524,728.706,524,728.706Z" transform="translate(-119.163 -86.741)" fill="#26a682"/><path d="M803.778,574.18S782.709,599.9,799.445,638.8L631.158,711.785l-16.15,3.4-7.438-32.542,5.049-41.058V619.115Z" transform="translate(-125.033 -80.735)" fill="#d5d6db"/><path d="M158.46,509.663,391.375,467.21l308.644,49.166-191.7,69.016Z" transform="translate(-11.13 -32.851)" fill="#3a3768"/><path d="M246.337,556.29s-21.794,41.272,3.31,79.392l345.407,74.846s-21.431-32.9,1.144-78.518Z" transform="translate(-99.044 -79.478)" fill="#3a3768"/><path d="M246.337,556.29s-21.794,41.272,3.31,79.392l345.407,74.846s-21.431-32.9,1.144-78.518L486.969,608.366Z" transform="translate(-99.044 -79.478)" opacity="0.1"/><path d="M257.682,571.68s-12.44,30.189,0,49.742" transform="translate(-100.069 -80.559)" opacity="0.1"/><path d="M596.007,715.964,788.849,633.68s10.776,2.324,3.8,10.227-192.926,79.96-192.926,79.96L250.6,641.118Z" transform="translate(-99.96 -84.914)" fill="#3a3768"/><path d="M596.007,715.964,788.849,633.68s10.776,2.324,3.8,10.227-192.926,79.96-192.926,79.96L250.6,641.118Z" transform="translate(-99.96 -84.914)" opacity="0.1"/><path d="M604.476,646.68s-18.6,22.314,0,55.786" transform="translate(-124.235 -85.827)" opacity="0.1"/><rect width="87.928" height="0.93" transform="translate(486.868 588.311) rotate(-18.45)" opacity="0.1"/><rect width="107.137" height="0.93" transform="translate(486.849 595.793) rotate(-20.82)" opacity="0.1"/><rect width="124.179" height="0.93" transform="translate(487.394 604.603) rotate(-22.26)" opacity="0.1"/><rect width="142.942" height="0.93" transform="translate(488.746 612.386) rotate(-24.31)" opacity="0.1"/><rect width="156.34" height="0.93" transform="matrix(0.916, -0.401, 0.401, 0.916, 489.766, 616.16)" opacity="0.1"/><rect width="187.087" height="0.93" transform="translate(491.935 622.518) rotate(-23.36)" opacity="0.1"/><path d="M251.53,515.161l163.638-34.4,99.689,19.06-134.09,43.234Z" transform="translate(-17.667 -33.803)" fill="#fff" opacity="0.45"/><path d="M815.028,563.51s8.452,3.412,3.5,8.675S623.33,632.517,623.33,632.517Z" transform="translate(-126.14 -79.985)" fill="#3a3768"/><path d="M813.18,464.15s-21.078,46.181-4.342,85.073L640.551,601.755l-16.113,3.412L617,572.625l4.974-41.068V509.085Z" transform="translate(-125.695 -73.007)" fill="#d5d6db"/><path d="M167.89,399.642,400.814,357.18l308.644,49.166L517.75,475.362Z" transform="translate(-11.792 -25.123)" fill="#26a682"/><path d="M255.806,446.26s-21.822,41.272,3.282,79.392L604.494,600.5s-21.44-32.9,1.134-78.509Z" transform="translate(-99.708 -71.75)" fill="#26a682"/><path d="M255.806,446.26s-21.822,41.272,3.282,79.392L604.494,600.5s-21.44-32.9,1.134-78.509Z" transform="translate(-99.708 -71.75)" opacity="0.1"/><path d="M267.122,461.65s-12.45,30.2,0,49.742" transform="translate(-100.732 -72.831)" opacity="0.1"/><path d="M605.447,606.5l192.833-61.829s10.785,2.324,3.812,10.227-192.926,59.5-192.926,59.5L260.04,531.65Z" transform="translate(-100.623 -77.748)" fill="#26a682"/><path d="M605.447,606.5l192.833-61.829s10.785,2.324,3.812,10.227-192.926,59.5-192.926,59.5L260.04,531.65Z" transform="translate(-100.623 -77.748)" opacity="0.1"/><path d="M613.916,536.65s-18.6,22.314,0,55.786" transform="translate(-124.898 -78.099)" opacity="0.1"/><rect width="87.928" height="0.93" transform="translate(495.647 486.007) rotate(-18.45)" opacity="0.1"/><rect width="107.137" height="0.93" transform="translate(495.622 493.494) rotate(-20.82)" opacity="0.1"/><rect width="124.179" height="0.93" transform="translate(496.159 502.309) rotate(-22.26)" opacity="0.1"/><rect width="142.942" height="0.93" transform="translate(497.524 510.083) rotate(-24.31)" opacity="0.1"/><rect width="156.34" height="0.93" transform="matrix(0.916, -0.401, 0.401, 0.916, 498.548, 513.866)" opacity="0.1"/><rect width="187.087" height="0.93" transform="translate(500.714 520.231) rotate(-23.36)" opacity="0.1"/><path d="M260.96,405.131,424.6,370.73l99.689,19.06L390.2,433.024Z" transform="translate(-18.329 -26.075)" fill="#fff" opacity="0.3"/><path d="M824.458,453.48s8.461,3.412,3.5,8.684S632.76,522.5,632.76,522.5Z" transform="translate(-126.802 -72.257)" fill="#26a682"/><path d="M396.617,149.917s-35.331-2.129-31.2,22.658c0,0-.828,4.379,3.143,6.369,0,0,.065-1.86,3.626-1.218a15.851,15.851,0,0,0,3.849.186,8.015,8.015,0,0,0,4.7-1.934h0s9.939-4.11,13.807-20.362c0,0,2.864-3.542,2.789-4.454l-5.988,2.548s2.036,4.3.437,7.884c0,0-.2-7.726-1.348-7.55-.232,0-3.1,1.5-3.1,1.5s3.505,7.5.855,12.952c0,0,1-9.242-1.952-12.412l-4.2,2.455s4.1,7.745,1.32,14.067c0,0,.716-9.7-2.2-13.472l-3.812,2.975s3.858,7.633,1.506,12.877c0,0-.307-11.287-2.324-12.143,0,0-3.338,2.938-3.84,4.147,0,0,2.641,5.579.995,8.47,0,0-.995-7.522-1.86-7.559,0,0-3.319,4.984-3.663,8.368A18.094,18.094,0,0,1,371,167.4a9.958,9.958,0,0,0-5.076,2.631s.511-3.524,5.9-3.831c0,0,2.743-3.784,3.477-4.007,0,0-5.365-.456-8.61.986,0,0,2.864-3.319,9.586-1.86L380,158.247s-7.048-.93-10.041.1c0,0,3.449-2.938,11.055-.8l4.1-2.445s-6.016-1.292-9.6-.827c0,0,3.775-2.036,10.795.167l2.919-1.311s-4.4-.865-5.69-1-1.357-.493-1.357-.493a15.35,15.35,0,0,1,8.275.93S396.738,150.307,396.617,149.917Z" transform="translate(-108.001 -50.932)" fill="#26a682"/><path d="M931.217,259.5s-35.331-2.129-31.2,22.658c0,0-.828,4.379,3.143,6.369,0,0,.065-1.86,3.626-1.218a16.381,16.381,0,0,0,3.849.186,7.987,7.987,0,0,0,4.649-1.934h0s9.948-4.11,13.807-20.362c0,0,2.864-3.542,2.789-4.454l-5.969,2.548s2.036,4.3.437,7.884c0,0-.2-7.726-1.339-7.55-.232,0-3.105,1.5-3.105,1.5s3.505,7.5.865,12.952c0,0,1-9.242-1.962-12.412l-4.2,2.455s4.1,7.745,1.32,14.067c0,0,.716-9.7-2.2-13.472l-3.8,2.975s3.849,7.633,1.5,12.877c0,0-.307-11.287-2.324-12.143,0,0-3.329,2.938-3.84,4.147,0,0,2.641,5.579,1,8.47,0,0-1-7.522-1.859-7.559,0,0-3.319,4.983-3.663,8.368a18.036,18.036,0,0,1,2.864-8.87,10,10,0,0,0-5.086,2.631s.521-3.524,5.9-3.831c0,0,2.743-3.784,3.477-4.017,0,0-5.355-.446-8.61.995,0,0,2.864-3.319,9.586-1.86l3.719-3.068s-7.057-.93-10.041.1c0,0,3.44-2.938,11.055-.8l4.091-2.445s-6.016-1.292-9.6-.828c0,0,3.775-2.036,10.794.167l2.929-1.311s-4.407-.865-5.7-1-1.357-.493-1.357-.493a15.238,15.238,0,0,1,8.275.93S931.329,259.887,931.217,259.5Z" transform="translate(-145.55 -58.629)" fill="#26a682"/><path d="M460.052,313.068s-15.4-31.919-35-16.187c0,0-4.23,1.413-4.026,5.848,0,0,1.627-.846,2.789,2.575a16.473,16.473,0,0,0,1.711,3.44,8.024,8.024,0,0,0,3.989,3.161h0s8.433,6.676,24.508,2.12c0,0,4.491.772,5.225.232l-5.132-3.97s-2.789,3.877-6.676,4.221c0,0,6.657-3.933,5.941-4.844-.149-.186-2.789-1.98-2.789-1.98s-4.844,6.722-10.887,7.066c0,0,8.554-3.626,9.874-7.764l-4.184-2.473s-4.77,7.364-11.641,8.015c0,0,8.814-4.1,10.683-8.489L440,302.18s-4.788,7.085-10.516,7.6c0,0,9.707-5.774,9.465-7.959,0,0-4.193-1.469-5.495-1.33,0,0-3.552,5.011-6.9,5.011,0,0,6.071-4.547,5.7-5.281,0,0-5.969-.465-9.112.93a18.1,18.1,0,0,1,9.14-1.859,10.013,10.013,0,0,0-4.779-3.152s3.329-1.264,6.22,3.282c0,0,4.649.549,5.2,1.078,0,0-2.222-4.891-5.058-7.02,0,0,4.3.865,6.257,7.438l4.509,1.785s-2.594-6.62-4.983-8.712c0,0,4.24,1.571,6.09,9.3l4.128,2.38s-1.794-5.885-3.951-8.777c0,0,3.617,2.306,5.114,9.5l2.575,1.915s-1.395-4.268-1.859-5.458-.233-1.432-.233-1.432a15.257,15.257,0,0,1,3.236,7.671S459.717,313.347,460.052,313.068Z" transform="translate(-111.93 -60.952)" fill="#26a682"/><path d="M843.832,209.448s-15.388-31.919-35-16.187c0,0-4.221,1.413-4.026,5.848,0,0,1.636-.837,2.789,2.575a16.123,16.123,0,0,0,1.72,3.449,7.977,7.977,0,0,0,3.979,3.152h0s8.442,6.676,24.509,2.129c0,0,4.491.762,5.235.223l-5.1-3.979s-2.789,3.886-6.666,4.23c0,0,6.648-3.942,5.932-4.853-.149-.186-2.789-1.98-2.789-1.98s-4.835,6.722-10.888,7.066c0,0,8.563-3.626,9.883-7.754l-4.249-2.455s-4.76,7.354-11.641,8.015c0,0,8.814-4.11,10.692-8.5l-4.453-1.86s-4.788,7.094-10.506,7.6c0,0,9.7-5.774,9.456-7.949,0,0-4.184-1.478-5.486-1.33,0,0-3.552,5-6.908,5,0,0,6.081-4.547,5.709-5.281,0,0-5.969-.465-9.121.93a18.093,18.093,0,0,1,9.14-1.86,9.957,9.957,0,0,0-4.77-3.152s3.329-1.264,6.22,3.282c0,0,4.649.558,5.2,1.088,0,0-2.222-4.9-5.067-7.029,0,0,4.3.874,6.257,7.485l4.519,1.785s-2.594-6.629-4.984-8.721c0,0,4.24,1.571,6.081,9.3l4.137,2.38s-1.8-5.876-3.961-8.777c0,0,3.626,2.306,5.114,9.5l2.575,1.915s-1.385-4.268-1.859-5.458-.232-1.423-.232-1.423a15.3,15.3,0,0,1,3.226,7.671S843.543,209.745,843.832,209.448Z" transform="translate(-138.886 -53.674)" fill="#26a682"/><path d="M896.72,379.257s-15.388-31.928-35.024-16.2c0,0-4.221,1.413-4.026,5.848,0,0,1.636-.837,2.789,2.575a16.115,16.115,0,0,0,1.711,3.449,7.978,7.978,0,0,0,3.979,3.152h0s8.442,6.685,24.518,2.129c0,0,4.481.772,5.225.223l-5.132-3.97s-2.789,3.886-6.676,4.23c0,0,6.648-3.942,5.932-4.853-.149-.186-2.789-1.98-2.789-1.98s-4.835,6.722-10.888,7.075c0,0,8.563-3.635,9.883-7.764l-4.193-2.473s-4.76,7.364-11.641,8.015c0,0,8.814-4.11,10.692-8.5l-4.454-1.86s-4.788,7.085-10.506,7.6c0,0,9.707-5.774,9.465-7.959,0,0-4.193-1.478-5.495-1.33,0,0-3.552,5-6.908,5,0,0,6.081-4.547,5.709-5.281,0,0-5.969-.465-9.121.93a18.149,18.149,0,0,1,9.149-1.859,9.939,9.939,0,0,0-4.779-3.152s3.329-1.274,6.22,3.282c0,0,4.649.549,5.2,1.079,0,0-2.222-4.891-5.058-7.029,0,0,4.3.874,6.257,7.485l4.509,1.785s-2.594-6.629-4.983-8.712c0,0,4.24,1.562,6.081,9.3l4.138,2.371s-1.8-5.876-3.961-8.777c0,0,3.626,2.306,5.123,9.511l2.575,1.86s-1.395-4.268-1.859-5.458-.232-1.423-.232-1.423a15.2,15.2,0,0,1,3.226,7.671S896.431,379.536,896.72,379.257Z" transform="translate(-142.599 -65.6)" fill="#26a682"/><ellipse cx="21.375" cy="2.389" rx="21.375" ry="2.389" transform="translate(166.39 724.268)" fill="#26a682" opacity="0.1"/><ellipse cx="21.375" cy="2.389" rx="21.375" ry="2.389" transform="translate(26.266 683.656)" fill="#26a682" opacity="0.1"/><ellipse cx="21.375" cy="2.389" rx="21.375" ry="2.389" transform="translate(273.201 751.24)" fill="#26a682" opacity="0.1"/><ellipse cx="21.375" cy="2.389" rx="21.375" ry="2.389" transform="translate(820.552 692.489)" fill="#26a682" opacity="0.1"/><ellipse cx="21.375" cy="2.389" rx="21.375" ry="2.389" transform="translate(642.68 680.894)" fill="#26a682" opacity="0.1"/><ellipse cx="25.28" cy="4.342" rx="25.28" ry="4.342" transform="translate(523.707 733.538)" fill="#26a682" opacity="0.1"/><path d="M689.491,790.14s-35.2,18.186-17.015,39.608c0,0,1.711,4.649,6.657,4.323,0,0-.986-1.8,2.789-3.245a18.137,18.137,0,0,0,3.8-2.018,8.934,8.934,0,0,0,3.4-4.547h0s7.2-9.632,1.618-27.456c0,0,.725-5.039.093-5.857l-4.277,5.867s4.416,2.966,4.928,7.327c0,0-4.649-7.317-5.579-6.508-.2.167-2.12,3.208-2.12,3.208s7.661,5.2,8.228,11.947c0,0-4.314-9.456-8.972-10.8l-2.668,4.76s8.368,5.1,9.3,12.756c0,0-4.863-9.716-9.828-11.678l-1.962,5.03s8.07,5.132,8.814,11.51c0,0-6.75-10.664-9.177-10.33,0,0-1.525,4.723-1.32,6.183,0,0,5.7,3.812,5.8,7.559,0,0-5.262-6.648-6.071-6.211,0,0-.335,6.685,1.283,10.162,0,0-2.789-4.965-2.334-10.162a11.157,11.157,0,0,0-3.375,5.43s-1.516-3.673,3.477-7.057c0,0,.474-5.2,1.051-5.839,0,0-5.4,2.641-7.7,5.876,0,0,.846-4.825,8.173-7.224l1.859-5.1s-7.327,3.105-9.586,5.839c0,0,1.627-4.788,10.162-7.085l2.529-4.649s-6.508,2.194-9.688,4.649c0,0,2.464-4.119,10.469-6.016l2.055-2.929s-4.723,1.683-6.043,2.287-1.581.307-1.581.307a17.1,17.1,0,0,1,8.47-3.849S689.816,790.456,689.491,790.14Z" transform="translate(-129.225 -95.903)" fill="#26a682"/><path d="M686.65,356.338s14.225,37.19,22.314,33.471,5.895-19.525,7.438-23.858,3.254-37.19,3.254-37.19.781-23.244,2.324-27.949c1.432-4.323,2.594-26.126,2.789-29.557V270.8l-1.534-26.963-8.684-2.166-20.139,7.438-2.789,15.927-1.088,6.22-.465,2.65Z" transform="translate(-130.587 -57.38)" fill="#be6f72"/><path d="M691.69,358.3s13.575,11.111,17.666,12.087,6.6,9.642,6.6,9.642" transform="translate(-130.941 -65.572)" opacity="0.1"/><path d="M564.12,358.088s-14.225,37.19-22.314,33.471-5.895-19.525-7.438-23.858-3.254-37.19-3.254-37.19-.781-23.244-2.324-27.949c-1.432-4.323-2.594-26.126-2.789-29.557v-.456l1.543-26.963,8.684-2.166,20.139,7.438,2.789,15.927,1.088,6.22.465,2.65Z" transform="translate(-119.303 -57.503)" fill="#be6f72"/><rect width="31.751" height="49.491" transform="translate(505.698 101.56)" fill="#3e373a"/><rect width="31.751" height="49.491" transform="translate(505.698 101.56)" opacity="0.1"/><path d="M560.417,406.366s-10.85,11.929-6.825,14.1,30.069,42.769,30.069,42.769,85.538,10.534,101.67-5.272,15.806-44.043,15.806-44.043-12.961,2.789-14.374,1.274-9.177-8.823-9.177-8.823S567.855,399.709,560.417,406.366Z" transform="translate(-121.178 -68.74)" fill="#4b4b5b"/><path d="M560.417,406.366s-10.85,11.929-6.825,14.1,30.069,42.769,30.069,42.769,85.538,10.534,101.67-5.272,15.806-44.043,15.806-44.043-12.961,2.789-14.374,1.274-9.177-8.823-9.177-8.823S567.855,399.709,560.417,406.366Z" transform="translate(-121.178 -68.74)" opacity="0.02"/><path d="M712.646,237.955,684.753,260.27l-8.433.614-3.1.223-52,3.812L567.3,260.976l-8.024-.586-10.227-.744L527.66,239.192s15.137-16.215,28.395-27.158c5.225-4.323,10.162-7.819,13.76-9.2l.614-.214a15.3,15.3,0,0,0,5.895-4.11c10.469-10.795,20.148-37.432,20.148-37.432s46.181-23.858,40.6,7.438,20.762,23.56,20.762,23.56l8.684,3.961,3.431,1.571,8.749,4.007,19.739,9.056C713.929,217.808,712.646,237.955,712.646,237.955Z" transform="translate(-119.42 -51.109)" fill="#be6f72"/><circle cx="41.532" cy="41.532" r="41.532" transform="translate(458.103 52.394)" opacity="0.1"/><path d="M712.594,271.332H526v-.456l1.543-26.963s15.137-16.215,28.395-27.158l117.15-4.649,5.448-5.746,19.739,9.056c15.5,7.122,14.253,27.27,14.253,27.27S714.649,266.032,712.594,271.332Z" transform="translate(-119.303 -54.9)" opacity="0.1"/><path d="M712.594,270.332H526v-.456l1.543-26.963s15.137-16.215,28.395-27.158l117.15-4.649,5.448-5.746,19.739,9.056c15.5,7.122,14.253,27.27,14.253,27.27S714.649,265.032,712.594,270.332Z" transform="translate(-119.303 -54.83)" fill="#e7c7ca"/><path d="M592.912,193.306s29.436,37.507,68.644-.772,4.342,85.38,4.342,85.38L581.29,287.956Z" transform="translate(-123.187 -53.413)" opacity="0.1"/><path d="M592.912,195.306s29.436,37.507,68.644-.772,4.342,85.38,4.342,85.38L581.29,289.956Z" transform="translate(-123.187 -53.553)" fill="#e7c7ca"/><path d="M671.581,202.884l3.115,47.5,3.338,15.806,2.548,12.087s6.508,92.976,4.649,97.625.93,8.368,1.32,10.841-.39,8.684-.084,11.473,0,4.026-7.122,3.031-17.052-2.724-17.052-2.724-25.1,1.86-33.778-1.237-25.1-3.105-25.1-3.105-24.8.623-32.848-.307-12.4,9.921-17.666,6.815,6.192-33.155,9.911-41.839-4.956-30.682-4.956-30.682l11.157-61.894,2.482-14.03V208.137l.614-.214a15.3,15.3,0,0,0,5.895-4.11L580.79,248.2l87.4,3.105V201.35" transform="translate(-121.097 -54.548)" opacity="0.1"/><path d="M671.581,200.884l3.115,47.5,3.338,15.806,2.548,12.087s6.508,92.976,4.649,97.625.93,8.368,1.32,10.841-.39,8.684-.084,11.473,0,4.026-7.122,3.031-17.052-2.724-17.052-2.724-25.1,1.86-33.778-1.237-25.1-3.105-25.1-3.105-24.8.623-32.848-.307-12.4,9.921-17.666,6.815,6.192-33.155,9.911-41.839-4.956-30.682-4.956-30.682l11.157-61.894,2.482-14.03V206.137l.614-.214a15.3,15.3,0,0,0,5.895-4.11L580.79,246.2l87.4,3.105V199.35" transform="translate(-121.097 -54.408)" fill="#e7c7ca"/><path d="M680.65,91.07a10.245,10.245,0,0,0-2.789-5.262,11.418,11.418,0,0,0-4.909-2.008,96.994,96.994,0,0,0-12.905-2.473,20.657,20.657,0,0,0-2.789-5.792c-9.112-12.868-22.593-25-38.455-27.744-8.3-1.441-17.926-.149-23.244,6.4-2.919,3.6-4.175,8.368-7.122,11.9-5.681,6.862-15.936,7.708-23.1,13.017-3.821,2.789-6.592,6.834-9.3,10.757-2.929,4.249-5.941,8.675-6.871,13.751-1.859,10.144,4.844,19.813,6.081,30.05,2.789,22.9-21.756,43.215-17.117,65.809,2.706,13.175,14.876,22.454,27.465,27.158,4.435,1.664,9.5,3.319,11.576,7.578.93,1.86,1.088,4.007,1.962,5.885,2.938,6.267,12.6,6.508,17.786,1.943s6.824-11.947,7.438-18.837c2.492-30.087-9.558-59.812-8.154-89.973.418-9.121,2.985-19.469,11.157-23.6,11-5.579,24.23,3.719,36.335,1.943a72.085,72.085,0,0,1,3.477,43.987c-1.924,8.024-5.253,15.806-5.495,24.081-.363,12.6,6.434,24.109,12.31,35.247a18.754,18.754,0,0,1,2.482,6.8,16.38,16.38,0,0,1-1.33,7.113c-3.319,8.935-9.047,17.229-9.7,26.74a4.323,4.323,0,0,0,.7,3.18,4,4,0,0,0,2.4,1.079c10.041,1.72,18.725-7.178,23.625-16.113a75.533,75.533,0,0,0,9.316-32.1c1.013-18.93-5.774-37.553-5.355-56.5C676.615,133.542,686.349,111.851,680.65,91.07Z" transform="translate(-120.115 -43.725)" opacity="0.1"/><path d="M681.65,90.07a10.245,10.245,0,0,0-2.789-5.262,11.418,11.418,0,0,0-4.909-2.008,97,97,0,0,0-12.905-2.473,20.657,20.657,0,0,0-2.789-5.792c-9.112-12.868-22.593-25-38.455-27.744-8.3-1.441-17.926-.149-23.244,6.4-2.919,3.6-4.175,8.368-7.122,11.9-5.681,6.862-15.936,7.708-23.1,13.017-3.821,2.789-6.592,6.834-9.3,10.757-2.929,4.249-5.941,8.675-6.871,13.751-1.859,10.144,4.844,19.813,6.081,30.05,2.789,22.9-21.756,43.215-17.117,65.809,2.706,13.175,14.876,22.454,27.465,27.158,4.435,1.664,9.5,3.319,11.576,7.578.93,1.86,1.088,4.007,1.962,5.885,2.938,6.267,12.6,6.508,17.786,1.943s6.824-11.947,7.438-18.837c2.492-30.087-9.558-59.812-8.154-89.973.418-9.121,2.984-19.469,11.157-23.6,11-5.579,24.23,3.719,36.335,1.943a72.084,72.084,0,0,1,3.477,43.987c-1.925,8.024-5.253,15.806-5.495,24.081-.363,12.6,6.434,24.109,12.31,35.247a18.755,18.755,0,0,1,2.482,6.8,16.384,16.384,0,0,1-1.329,7.113c-3.319,8.935-9.047,17.229-9.7,26.74a4.323,4.323,0,0,0,.7,3.18,4,4,0,0,0,2.4,1.079c10.041,1.72,18.725-7.178,23.625-16.113a75.534,75.534,0,0,0,9.316-32.1c1.013-18.93-5.774-37.553-5.355-56.5C677.615,132.542,687.349,110.851,681.65,90.07Z" transform="translate(-120.185 -43.655)" fill="#3e373a"/><path d="M581.79,490.753l36.884,1.181-5.29-27.354-28.255,2.687Z" transform="translate(-40.864 -32.667)" fill="#c3c7d9"/><path d="M780.343,462.066c-2.482,3.1-12.087,8.675-13.017,10.534s-12.394,7.438-18.289,8.368-24.481,4.965-27.893,7.131c-2.445,1.562-22.073,6.508-34.968,9.251a99.235,99.235,0,0,1-10.59,1.906c-5.578.307-66.627-20.455-66.627-20.455l11.771-12.087.651-.223c3.329-1.125,18.707-6.322,27.242-8.8,9.614-2.789,20.771-14.253,20.771-14.253s16.42-5.579,18.6-6.2-5.579-21.691-5.579-21.691,35.638-4.946,49.584-9.14,46.181-2.641,52.067,13.788S782.863,458.97,780.343,462.066Z" transform="translate(-125.13 -68.812)" fill="#4b4b5b"/><path d="M612.674,520.269s-7.122,7.438-14.253,6.824-32.067,1.859-32.067,1.859a49.991,49.991,0,0,0-12.561,7.28c-5.83,4.593-8.926.93-9.5.149l-.1-.149c-3.105,9.772-10.227,2.324-10.227,2.324s3.1-29.752,2.148-33.471,6.127-10.106,6.127-10.106l8.368-2.129,21.2-5.43,30.375,10.534Z" transform="translate(-119.862 -74.641)" fill="#e7c7ca"/><path d="M550.566,493.26l-6.276,43.531-.1-.149c-3.105,9.772-10.227,2.324-10.227,2.324s3.1-29.752,2.148-33.471,6.127-10.106,6.127-10.106Z" transform="translate(-119.862 -75.051)" opacity="0.1"/><path d="M599,360.08s16.42,5.579,30.682,0" transform="translate(-124.431 -65.697)" opacity="0.1"/><path d="M659.29,371.42s6.815,3.4,12.087,0" transform="translate(-128.665 -66.494)" opacity="0.1"/><path d="M659.29,379.982s11.464,1.534,13.64-1.562" transform="translate(-128.665 -66.985)" opacity="0.1"/><path d="M655.29,398.258s21.533-2.789,26.879-6.508" transform="translate(-128.384 -67.921)" opacity="0.1"/><path d="M584.62,391.75s12.087,6.815,21.078,6.508" transform="translate(-123.421 -67.921)" opacity="0.1"/><path d="M686.167,502.039a99.268,99.268,0,0,1-10.59,1.906c-5.579.307-66.627-20.455-66.627-20.455L620.721,471.4l.651-.223c1.86,1.311,3.384,2.436,4.472,3.291,5.123,4.035,10.069-1.237,11.929-1.237s17.972,13.324,17.972,13.324,14.876,3.412,17.359,6.508,11.157,2.482,12.7,4.649C686.269,498.385,686.325,500.031,686.167,502.039Z" transform="translate(-125.13 -73.5)" opacity="0.1"/><path d="M561.91,416.919s-15.044.865-23.718-2.789-37.5-12.087-45.865-6.164-28.516,11.157-19.218,34.717,13.64,24.174,13.64,24.174a33.564,33.564,0,0,1,7.438,7.717c2.789,4.342,28.823,14.253,35.331,14.253s17.972,0,34.085,11.157,30.682,12.4,30.682,12.4,20.455,8.368,26.824,10.227,35.47,9.911,42.295,7.438,11.157-17.982,11.157-17.982,3.1-13.946,1.543-16.113-10.227-1.553-12.7-4.649-17.359-6.508-17.359-6.508-16.076-13.333-17.935-13.333-6.806,5.262-11.929,1.237a272.135,272.135,0,0,0-32.086-20.455C572.324,446.048,561.91,416.919,561.91,416.919Z" transform="translate(-115.42 -68.916)" fill="#4b4b5b"/><path d="M536.27,427.393a17.758,17.758,0,0,1,15.239,4.026c7.438,6.2,32.467,18.651,32.467,18.651" transform="translate(-120.025 -70.4)" opacity="0.1"/><path d="M733.317,427s-33.165,5.021-39.357,11.836" transform="translate(-131.101 -70.397)" opacity="0.1"/><path d="M770.851,533.908h-1.46c-5.244-.186-23.012-.744-26.433,0-4.026.93-57.338,0-57.338,0l10.423-2.166s-3.868-13.556-1.413-14.681c0,0-13.946-9.186-3.431-15.388s21.849-3.589,21.849-3.589l26.4-8.944,5.067-1.72s29.752,1.553,37.8,22.007S770.851,533.908,770.851,533.908Z" transform="translate(-130.515 -74.641)" fill="#e7c7ca"/><path d="M774.917,533.912h-1.46c8.656-7.141,28.237-28.878-29.948-44.722l5.067-1.72s29.752,1.553,37.8,22.008S774.917,533.912,774.917,533.912Z" transform="translate(-134.581 -74.645)" opacity="0.1"/><circle cx="1.627" cy="1.627" r="1.627" transform="translate(584.012 431.913)" fill="#4b4b5b"/><circle cx="1.627" cy="1.627" r="1.627" transform="translate(574.556 434.6)" fill="#4b4b5b"/><g transform="translate(418.619 58.437)" opacity="0.1"><path d="M654.741,140.29a72.141,72.141,0,0,0-5.337-29.883c-12.087,1.8-25.327-7.522-36.335-1.943-8.145,4.128-10.7,14.476-11.157,23.6-.112,2.408-.13,4.816-.084,7.224,0-.855,0-1.72.084-2.575.428-9.121,2.984-19.469,11.157-23.6,11.008-5.579,24.23,3.719,36.335,1.943a71.947,71.947,0,0,1,5.337,25.234Z" transform="translate(-543.247 -106.335)"/><path d="M557.509,138.729a30.994,30.994,0,0,0-.121-6.081c-.986-8.182-5.458-16-6.267-23.979-1.041,9.623,5.086,18.865,6.267,28.627A5.809,5.809,0,0,1,557.509,138.729Z" transform="translate(-539.678 -106.476)"/><path d="M605.642,228.674c-.576,6.9-2.2,14.272-7.438,18.846s-14.876,4.323-17.786-1.943c-.93-1.86-1.069-4.026-1.971-5.885-2.064-4.258-7.141-5.913-11.576-7.578-12.6-4.714-24.75-13.946-27.456-27.158a28.525,28.525,0,0,1-.493-3.626,29.3,29.3,0,0,0,.493,8.275c2.706,13.175,14.876,22.444,27.456,27.158,4.435,1.664,9.511,3.319,11.576,7.578.93,1.86,1.088,4.007,1.971,5.885,2.929,6.267,12.589,6.508,17.786,1.943s6.815-11.947,7.438-18.846a106.239,106.239,0,0,0,.288-10.915C605.93,224.518,605.81,226.6,605.642,228.674Z" transform="translate(-538.823 -112.984)"/><path d="M687.93,153.9v4.026c.521-17.294,6.862-34.68,6.239-51.611C693.685,121.967,688.283,137.978,687.93,153.9Z" transform="translate(-549.296 -106.31)"/><path d="M665.368,229.542a11.986,11.986,0,0,0,.214-3.356,18.594,18.594,0,0,0-2.482-6.8c-5.374-10.227-11.5-20.7-12.226-32.049,0,.483-.065.93-.074,1.45-.372,12.589,6.425,24.109,12.3,35.247a22.315,22.315,0,0,1,2.269,5.5Z" transform="translate(-546.687 -112.001)"/><path d="M690.947,218.12a75.656,75.656,0,0,1-9.381,32.1c-4.909,8.935-13.584,17.833-23.634,16.113a3.952,3.952,0,0,1-2.4-1.088,2.325,2.325,0,0,1-.437-.725c-.112.725-.2,1.46-.26,2.2a4.286,4.286,0,0,0,.7,3.171,3.952,3.952,0,0,0,2.4,1.088c10.051,1.72,18.725-7.178,23.635-16.113a75.656,75.656,0,0,0,9.381-32.1c.112-2.176.121-4.342.056-6.508C690.984,216.883,690.984,217.5,690.947,218.12Z" transform="translate(-546.967 -114.033)"/></g><path d="M695.31,518.4s23.532,9.874,39.05-11.975" transform="translate(-131.195 -75.976)" fill="none" stroke="#000" stroke-miterlimit="10" stroke-width="1" opacity="0.1"/><path d="M700.29,537.431s19.218-12.5,43.7-.409" transform="translate(-131.545 -77.755)" fill="none" stroke="#000" stroke-miterlimit="10" stroke-width="1" opacity="0.1"/><path d="M561.93,534.089s8.07-18.2,29.622-4.323" transform="translate(-121.827 -77.249)" fill="none" stroke="#000" stroke-miterlimit="10" stroke-width="1" opacity="0.1"/><path d="M533.79,243.876,550.247,229s63.81-4.184,66.45,17.507c0,0,22.621-25.717,70.2-19.99l20.129,16.029-55.637,24.416-54.066,18.753L557.5,267.892Z" transform="translate(-119.85 -56.257)" opacity="0.1"/><path d="M533.79,244.876,550.247,230s63.81-4.184,66.45,17.507c0,0,22.621-25.717,70.2-19.99l20.129,16.029-55.637,24.416-54.066,18.753L557.5,268.892Z" transform="translate(-119.85 -56.328)" fill="#d5d6db"/><path d="M437.38,204.83l7.28,87.091,77.17,3.877-3.347-86.719-.065-1.46Z" transform="translate(-30.721 -14.422)" opacity="0.1"/><path d="M437.38,202.83l7.28,87.091,77.17,3.877-3.347-86.719-.065-1.46Z" transform="translate(-30.721 -14.282)" fill="#26a682"/><path d="M629.316,202.83,549.71,214.768V302.25L627.5,291.009Z" transform="translate(-38.61 -14.282)" opacity="0.1"/><path d="M629.316,200.83,549.71,212.768V300.25L627.5,289.009Z" transform="translate(-38.61 -14.141)" fill="#26a682"/><path d="M611.892,223.79l-43,4.779.939,14.653,42.034-4.593Z" transform="translate(-39.957 -15.754)" fill="#fff" opacity="0.3"/><path d="M538.149,384.221,542.528,396s6.508,5.579,13.63,2.789,13.333-4.175,16.429-6.89,7.438-16.355,7.438-16.355,4.342-14.876,8.675-18.6,15.806-54.958,0-49.947-27.893,51.5-27.893,51.5-2.789,3.4-6.815,3.719-12.087-.623-13.64,2.789S533.5,377.406,538.149,384.221Z" transform="translate(-120.025 -61.945)" fill="#be6f72"/><path d="M636.526,258.64a26.777,26.777,0,0,1-23.346-5.82l3.356,86.71s7.9,8.554,19.99,6.6Z" transform="translate(-125.427 -58.163)" opacity="0.1"/><path d="M636.526,256.64a26.777,26.777,0,0,1-23.346-5.82l3.356,86.71s7.9,8.554,19.99,6.6Z" transform="translate(-125.427 -58.023)" fill="#26a682"/><path d="M636.526,256.64a26.777,26.777,0,0,1-23.346-5.82l3.356,86.71s7.9,8.554,19.99,6.6Z" transform="translate(-125.427 -58.023)" opacity="0.1"/><path d="M640.29,245.917s32.384-9.9,40.826-8.507" transform="translate(-127.331 -57.071)" opacity="0.1"/><path d="M598.563,241.489s-31.389-7.438-36.633-5.328" transform="translate(-121.827 -56.967)" opacity="0.1"/><path d="M662.25,247.508s21.654-7.94,29.483-4.165" transform="translate(-128.873 -57.426)" opacity="0.1"/><path d="M650.52,460.9a71.194,71.194,0,0,1,10.674-6.629c5.579-2.687,15.806-9.66,15.806-9.66" transform="translate(-128.049 -71.634)" opacity="0.1"/><path d="M560.1,360.08s-13.584,11.111-17.666,12.087-6.6,9.642-6.6,9.642" transform="translate(-119.994 -65.697)" opacity="0.1"/><path d="M710.893,382.443l-4.333,11.808s-6.508,5.579-13.64,2.789-13.324-4.175-16.429-6.89-7.438-16.355-7.438-16.355-4.333-14.876-8.675-18.6-15.806-54.958,0-49.947,27.893,51.5,27.893,51.5,2.789,3.4,6.815,3.719,12.087-.623,13.64,2.789S715.541,375.656,710.893,382.443Z" transform="translate(-128.173 -61.822)" fill="#be6f72"/><path d="M707.15,364.94s8.879,5.709,8.842,12.533" transform="translate(-132.027 -66.038)" opacity="0.1"/><circle cx="41.532" cy="41.532" r="41.532" transform="translate(458.252 50.358)" fill="#be6f72"/><path d="M596.516,126.992c5.039-.79,9.456-3.719,14.272-5.4,10.776-3.784,22.7-1.19,33.6,2.222,4.184,1.311,8.433,2.789,12.821,2.789s9.047-1.794,11.287-5.579c2.064-3.477,1.664-8-.074-11.65s-4.649-6.592-7.587-9.363c-9.67-9.13-21.663-17.665-34.931-16.736-5.337.381-10.441,2.287-15.35,4.4a169.211,169.211,0,0,0-18.019,9.074c-4.472,2.594-12.756,6.062-15.332,10.8C571.348,118.234,587.4,128.424,596.516,126.992Z" transform="translate(-122.812 -46.25)" fill="#3e373a"/><path d="M668.5,119.124c-2.241,3.784-6.9,5.579-11.287,5.579s-8.637-1.423-12.831-2.734c-10.906-3.412-22.816-6.016-33.6-2.222-4.807,1.683-9.233,4.649-14.272,5.393-7.345,1.153-19.172-5.244-20.455-13.379-1.441,9.4,12.273,17.452,20.455,16.169,5.039-.79,9.465-3.719,14.272-5.393,10.785-3.793,22.7-1.19,33.6,2.222,4.193,1.311,8.433,2.789,12.831,2.734s9.047-1.785,11.287-5.579a10.888,10.888,0,0,0,1.3-6.8,10.024,10.024,0,0,1-1.3,4.007Z" transform="translate(-122.812 -48.256)" opacity="0.1"/><path d="M1036.854,661.63s5.514,7.206-2.547,18.093-14.7,20.074-12.022,26.861c0,0,12.161-20.213,22.054-20.5S1047.723,673.782,1036.854,661.63Z" transform="translate(-154.119 -86.877)" fill="#26a682"/><path d="M1036.878,661.63a8.924,8.924,0,0,1,1.125,2.259c9.651,11.343,14.8,21.933,5.513,22.193-8.647.251-19.014,15.713-21.5,19.609a9.094,9.094,0,0,0,.288.93s12.161-20.213,22.054-20.5S1047.747,673.782,1036.878,661.63Z" transform="translate(-154.143 -86.877)" opacity="0.1"/><path d="M1048.9,671.387c0,2.538-.288,4.593-.632,4.593s-.641-2.055-.641-4.593.353-1.339.707-1.339S1048.9,668.849,1048.9,671.387Z" transform="translate(-155.941 -87.449)" fill="#ffd037"/><path d="M1052.462,674.635c-2.222,1.209-4.165,1.943-4.333,1.636s1.5-1.543,3.719-2.789,1.348-.335,1.516,0S1054.693,673.417,1052.462,674.635Z" transform="translate(-155.976 -87.665)" fill="#ffd037"/><path d="M1005.726,661.63s-5.513,7.206,2.548,18.093,14.7,20.074,12.013,26.861c0,0-12.152-20.213-22.054-20.5S994.885,673.782,1005.726,661.63Z" transform="translate(-152.13 -86.877)" fill="#26a682"/><path d="M1005.726,661.63a8.929,8.929,0,0,0-1.125,2.259c-9.651,11.343-14.8,21.933-5.514,22.193,8.637.251,19.014,15.713,21.5,19.609a7.213,7.213,0,0,1-.3.93s-12.152-20.213-22.054-20.5S994.885,673.782,1005.726,661.63Z" transform="translate(-152.13 -86.877)" opacity="0.1"/><path d="M995.64,671.387c0,2.538.279,4.593.632,4.593s.642-2.055.642-4.593-.363-1.339-.707-1.339S995.64,668.849,995.64,671.387Z" transform="translate(-152.29 -87.449)" fill="#ffd037"/><path d="M991.758,674.635c2.222,1.209,4.165,1.943,4.333,1.636s-1.5-1.543-3.719-2.789-1.348-.335-1.516,0S989.526,673.417,991.758,674.635Z" transform="translate(-151.922 -87.665)" fill="#ffd037"/><ellipse cx="57.645" cy="8.842" rx="57.645" ry="8.842" transform="translate(810.52 657.176)" fill="#26a682" opacity="0.1"/><path d="M1049.756,699.276l-.279,2.25-.391,3.18-.158,1.33-.39,3.18-.167,1.33-.381,3.17-4.416,36.168c-.391,3.226-5.662,5.746-12.031,5.746h-22.919c-6.369,0-11.631-2.52-12.031-5.746l-4.416-36.168-.39-3.17-.158-1.33-.391-3.18-.167-1.33-.381-3.18-.279-2.25c-.214-1.859,2.631-3.366,6.239-3.366h46.879C1047.125,695.91,1049.979,697.444,1049.756,699.276Z" transform="translate(-151.922 -89.285)" fill="#65617d"/><path d="M960.919,658.53l-.381,3.18H902.521l-.391-3.18Z" transform="translate(-63.363 -46.289)" fill="#9d9cb5"/><path d="M960.412,663.38l-.381,3.18h-56.92l-.391-3.18Z" transform="translate(-63.405 -46.63)" fill="#9d9cb5"/><path d="M959.905,668.23l-.39,3.18H903.7l-.381-3.18Z" transform="translate(-63.447 -46.97)" fill="#9d9cb5"/></g></svg>