<?xml version="1.0" encoding="utf-8"?>
<!-- Generator: Adobe Illustrator 24.0.2, SVG Export Plug-In . SVG Version: 6.00 Build 0)  -->
<svg version="1.1" id="Layer_1" xmlns="http://www.w3.org/2000/svg" xmlns:xlink="http://www.w3.org/1999/xlink" x="0px" y="0px"
	 viewBox="0 0 250 250" style="enable-background:new 0 0 250 250;" xml:space="preserve">
<style type="text/css">
	.st0{fill:none;}
	.st1{fill:#F2F2F2;}
</style>
<g>
	<path class="st0" d="M36.2,142.4l-1.3,8.5h21.5l-2.2-14.8c-4,1.3-8,2.6-12,4C40.3,140.9,38.3,141.6,36.2,142.4z"/>
	<path class="st0" d="M140.5,89c0-10.1-3.4-14.6-11.3-14.6h-10.7v34.1c4.8-0.5,9.6-0.9,14.4-1.3c2.5-0.2,5-0.3,7.5-0.4
		c0.2-1.2,0.2-2.5,0.2-3.9V89z"/>
	<path class="st0" d="M45.5,79.2l-7.1,48.4c4.6-1.9,9.2-3.5,13.9-5.1l-6.4-43.3H45.5z"/>
	<path class="st1" d="M57.2,135.2c-1,0.3-1.9,0.6-2.9,0.9l2.2,14.8H35l1.3-8.5c-7.3,2.8-14.4,5.8-21.3,9.3l-7.1,44.2h20.5l3.8-25.7
		h27.3l3.8,25.7h22.5l-10.5-65.7c-1,0.3-2,0.5-3.1,0.8C67.2,132.2,62.1,133.7,57.2,135.2z"/>
	<path class="st1" d="M37.6,127.9c0.3-0.1,0.5-0.2,0.8-0.3l7.1-48.4h0.4l6.4,43.3c0.2-0.1,0.5-0.2,0.7-0.3
		c5.2-1.7,10.4-3.2,15.7-4.7c1.5-0.4,2.9-0.8,4.4-1.1l-10-62.3H30.5l-13.4,83.6c1.8-1,3.7-2,5.5-2.9C27.6,132.3,32.6,130,37.6,127.9
		z"/>
	<path class="st1" d="M118.4,74.4h10.7c7.9,0,11.3,4.5,11.3,14.6v14c0,1.4-0.1,2.7-0.2,3.9c7.3-0.3,14.6-0.4,21.8-0.3
		c0.4-2.6,0.7-5.5,0.7-8.6V86.7c0-21.9-9.9-32.6-33-32.6H96.1v57.5c7.4-1.3,14.8-2.3,22.3-3.1V74.4z"/>
	<path class="st1" d="M96.1,125.2v70.7h22.3v-57.7h7.7c10.1,0,14.6,4.9,14.6,18v22.3c0,11.5,0.8,13.8,2,17.4h22.7
		c-2.2-5.3-2.4-10.3-2.4-17.2v-21.9c0-14.8-3.6-25.3-14.8-30v-0.4c5.6-2.6,9.5-6.7,11.8-12.4c-8.7,1.2-17.4,2.5-26,3.9
		C121.3,120.1,108.7,122.4,96.1,125.2z"/>
	<path class="st1" d="M242.1,101.9V88.1c0-22.7-11.3-35.6-33.2-35.6s-33.2,13-33.2,35.6V107c7.2,0.4,14.4,1.1,21.6,2.1
		c-5.3,0.8-10.7,1.5-16,2.1c-1.9,0.3-3.7,0.5-5.6,0.7v49.9c0,22.7,11.3,35.6,33.2,35.6s33.2-13,33.2-35.6V143h-21.1v20.3
		c0,10.1-4.5,13.8-11.5,13.8c-7.1,0-11.5-3.6-11.5-13.8V86.7c0-10.1,4.5-14,11.5-14c7.1,0,11.5,3.8,11.5,14v15.2H242.1z"/>
</g>
</svg>
