<svg xmlns="http://www.w3.org/2000/svg" width="49.793" height="49.793" viewBox="0 0 49.793 49.793"><path d="M.563,25.459a24.9,24.9,0,1,1,24.9,24.9A24.892,24.892,0,0,1,.563,25.459Zm14.416,2.9,7.268-7.579V39.112a2.4,2.4,0,0,0,2.409,2.409h1.606a2.4,2.4,0,0,0,2.409-2.409V20.781l7.268,7.579a2.412,2.412,0,0,0,3.443.04l1.094-1.1a2.4,2.4,0,0,0,0-3.4L27.166,10.571a2.4,2.4,0,0,0-3.4,0L10.431,23.893a2.4,2.4,0,0,0,0,3.4l1.094,1.1A2.424,2.424,0,0,0,14.979,28.361Z" transform="translate(-0.563 -0.563)" fill="#26a682"/></svg>