<svg xmlns="http://www.w3.org/2000/svg" width="25.128" height="25.122" viewBox="0 0 25.128 25.122"><path d="M12.561,8.358A6.441,6.441,0,1,0,19,14.8,6.431,6.431,0,0,0,12.561,8.358Zm0,10.628A4.187,4.187,0,1,1,16.749,14.8a4.2,4.2,0,0,1-4.187,4.187ZM20.768,8.094a1.5,1.5,0,1,1-1.5-1.5A1.5,1.5,0,0,1,20.768,8.094Zm4.266,1.525A7.435,7.435,0,0,0,23,4.355a7.484,7.484,0,0,0-5.264-2.029c-2.074-.118-8.291-.118-10.365,0A7.473,7.473,0,0,0,2.112,4.35,7.459,7.459,0,0,0,.083,9.613c-.118,2.074-.118,8.291,0,10.365a7.435,7.435,0,0,0,2.029,5.264,7.493,7.493,0,0,0,5.264,2.029c2.074.118,8.291.118,10.365,0A7.435,7.435,0,0,0,23,25.242a7.483,7.483,0,0,0,2.029-5.264c.118-2.074.118-8.285,0-10.359ZM22.354,22.2a4.239,4.239,0,0,1-2.388,2.388c-1.654.656-5.578.5-7.405.5s-5.757.146-7.405-.5A4.239,4.239,0,0,1,2.768,22.2c-.656-1.654-.5-5.578-.5-7.405s-.146-5.757.5-7.405A4.239,4.239,0,0,1,5.156,5.006c1.654-.656,5.578-.5,7.405-.5s5.757-.146,7.405.5a4.239,4.239,0,0,1,2.388,2.388c.656,1.654.5,5.578.5,7.405S23.01,20.556,22.354,22.2Z" transform="translate(0.005 -2.238)" fill="#f2f2f2"/></svg>